<svg id="Layer_1" data-name="Layer 1" viewBox="0 0 676.61 751.58">
  <g>
    <path d="M254.38,746.58c-1.92,0-4.02-.16-6.26-.47-14.81-2.06-27.18-6.98-37.82-15.05-11.66-8.84-15.62-20.62-10.59-31.51,3.8-8.23,12.69-13.34,23.19-13.34,2.29,0,4.64,.25,6.96,.73,4.26,.89,8.33,2.12,12.64,3.43,.25,.08,.5,.15,.75,.23l7.29-38.31-5.07-1.75c-32.65-11.24-59.43-26.73-81.85-47.38-26.95-24.81-45.58-56.71-56.94-97.54-5.12-18.4-8.79-38.84-11.53-64.33-.02-.18-.04-.36-.07-.55-.85,0-1.69,0-2.54,0-1.3,0-2.6,0-3.9,.03-1.23,.02-2.45,.04-3.67,.04-12.28,0-22.96-1.25-32.66-3.81-26.9-7.11-46.33-30.25-47.26-56.25-.39-10.97,1.54-20.55,5.91-29.28,10.8-21.57,27.28-34.7,48.98-39.02,2.27-.45,4.55-.68,6.77-.68,9.56,0,18,4.12,24.42,11.92,2.43,2.95,4.24,6.09,5.42,9.38,4.26-45.62,13.88-89.06,28.7-129.51,20.6-56.23,49.38-101.73,87.99-139.09,27.6-26.71,56.62-44.38,88.71-54.01,11.99-3.6,24.21-5.42,36.32-5.42,16.78,0,33.84,3.5,50.7,10.4,32.98,13.49,62.07,34.44,88.93,64.04,42.87,47.24,72.41,106.28,90.32,180.49,5.62,23.31,9.56,47.58,11.9,73.55,2.75-8.33,8.77-15.08,16.77-18.53,4.85-2.1,9.83-3.16,14.8-3.16s10.29,1.14,15.31,3.38c28.33,12.66,43.32,33.31,44.55,61.37,.86,19.5-7.72,36.67-24.8,49.63-15.02,11.4-32.6,13.64-46.24,14.33-2.61,.13-5.39,.19-8.75,.19-2.35,0-4.72-.03-7.13-.06-1-.01-2-.02-3.02-.04-.22,1.72-.43,3.43-.64,5.12-.84,6.71-1.63,13.05-2.59,19.45-4.5,30.27-11.95,56.23-22.78,79.37-17.53,37.45-44.9,66.53-81.35,86.43-9.93,5.42-20.48,9.83-30.69,14.1-4.36,1.83-8.88,3.71-13.25,5.64-1.37,.6-2.71,1.11-4.2,1.65l7.19,38.27c.79-.21,1.58-.41,2.37-.59,1.5-.34,2.98-.73,4.56-1.14,4.01-1.05,8.15-2.13,12.52-2.44,.72-.05,1.45-.08,2.17-.08,10.42,0,19.05,5.6,22.5,14.62,3.64,9.51,.6,20.02-7.93,27.43-9.3,8.08-20.34,13.52-32.79,16.18-4.42,.94-8.05,1.5-11.44,1.75-1.02,.08-2.03,.12-2.99,.12-12.42,0-20.07-6.49-22.72-19.28-1.79-8.62-3.4-17.39-4.96-25.88-.74-4.05-1.49-8.09-2.25-12.13-1.33-7.03-2.67-14.06-4-21.03l-.9-4.72c-4.02,.37-8.03,.78-11.94,1.19-12.12,1.25-24.65,2.54-36.99,2.54-12.38,0-24.4-1.23-37.13-2.53-3.99-.41-8.07-.82-12.19-1.2l-.82,4.2c-1.31,6.66-2.64,13.48-3.94,20.3-1.19,6.25-2.35,12.49-3.52,18.74-1.14,6.12-2.28,12.25-3.45,18.37-2.76,14.49-10.3,21.54-23.08,21.54ZM338.56,42.71c-2.26,0-4.51,.13-6.7,.37-18.3,2.08-36.25,8.77-56.48,21.04-26.19,15.89-48.89,38-71.45,69.58-26.07,36.49-44.76,78.89-57.14,129.62-12.88,52.73-17.62,108.28-14.09,165.1,1.63,26.32,5.64,49.99,12.25,72.35,12.28,41.58,34.96,72.08,69.31,93.24,35,21.55,75.48,33.19,120.33,34.59,2.07,.07,4.18,.1,6.26,.1h0c29.52,0,59.43-6.33,91.43-19.35,52.71-21.44,85.57-58.18,100.48-112.31,7.91-28.71,12.06-59.8,13.46-100.78-.61-7.68-1.17-15.37-1.74-23.05-1.25-17-2.54-34.58-4.27-51.79-3.66-36.46-12.39-72.48-26.71-110.12-18.46-48.54-43.72-87.79-77.23-120-22.66-21.78-46.4-36.27-72.58-44.28-9.58-2.93-17.57-4.3-25.14-4.3Zm248.07,340.2c12.1,0,22.53,4.49,31.14,8.89,1.04,.53,4.21,2.15,5.37,2.15,.28,0,1.17-.53,4.04-4.07,5.21-6.44,5.8-13.58,1.88-22.46-1.11-2.52-2.31-4.22-4.62-6.21-4.55,7.09-11.92,11.3-19.81,11.3-5.85,0-11.65-2.32-16.33-6.54-2.69-2.43-4.87-5.29-6.48-8.45,.09,1.83,.18,3.67,.26,5.51,.24,5.61,.63,11.15,1.05,17.01,.07,.99,.14,1.98,.21,2.97,1.1-.07,2.2-.11,3.3-.11Zm-533.67,10.34c.17,.06,.65,.18,1.41,.18,.51,0,1.04-.05,1.49-.15,1.21-.26,2.64-1.06,4.16-1.9,.75-.41,1.49-.83,2.24-1.2,9.78-4.92,18.46-7.21,27.29-7.21,1.23,0,2.48,.05,3.73,.14,.1-2.44,.19-4.79,.33-7.16,.11-1.85,.26-3.69,.41-5.53,.2-2.39,.38-4.66,.48-6.94,.08-2.07,.18-4.12,.28-6.18-4.4,9.33-12.18,14.65-22.15,15.07-.39,.02-.77,.02-1.14,.02-8.31,0-14.95-3.86-19.39-11.21-5.23,5.38-7.43,11.5-6.88,18.93,.39,5.21,2.92,9.51,7.74,13.15Z" style="fill: #e8754d;"/>
    <path d="M338.26,10c16.42,0,32.7,3.44,48.81,10.03,34.13,13.96,62.52,35.66,87.13,62.77,46.39,51.12,73.17,112.03,89.16,178.3,8.1,33.56,12.23,67.68,13.72,102.15,.36,8.32,1.05,16.62,1.62,25.37,2.72-.49,5.36-.71,7.93-.71,10.42,0,19.73,3.68,28.87,8.34,3.43,1.75,5.73,2.7,7.64,2.7,2.68,0,4.63-1.85,7.92-5.93,6.97-8.62,6.82-18,2.56-27.63-2.17-4.92-4.85-7.55-10.79-11.62-.81,1.48-1.53,2.98-2.4,4.39-3.79,6.14-9.7,9.34-15.82,9.34-4.48,0-9.05-1.72-12.98-5.26-13.54-12.22-9.57-35.46,7.23-42.72,4.28-1.85,8.56-2.75,12.81-2.75,4.47,0,8.91,1,13.27,2.95,24.68,11.03,40.38,29.24,41.6,57.03,.83,18.87-7.84,34.06-22.82,45.42-12.81,9.72-27.9,12.54-43.47,13.32-2.82,.14-5.65,.19-8.5,.19-4.73,0-9.54-.12-14.54-.12-1.32,10.15-2.39,19.53-3.78,28.86-4.01,26.97-10.76,53.18-22.36,77.98-17.19,36.73-43.78,64.82-79.22,84.16-13.93,7.6-28.99,13.13-43.56,19.56-2.27,1-4.65,1.77-7.88,2.99,2.94,15.67,5.86,31.21,8.97,47.76,2.87-.77,5.12-1.45,7.4-1.97,5.43-1.25,10.82-3.08,16.32-3.47,.61-.04,1.21-.07,1.8-.07,8.57,0,15.2,4.54,17.83,11.41,2.81,7.33,.54,15.72-6.54,21.86-8.82,7.66-19.12,12.62-30.56,15.06-3.55,.76-7.16,1.39-10.77,1.66-.9,.07-1.77,.1-2.61,.1-9.98,0-15.65-4.8-17.83-15.29-2.62-12.6-4.81-25.28-7.2-37.93-1.91-10.12-3.85-20.24-5.75-30.2-18.09,1.51-35.54,4.1-53,4.1h-.02c-17.49,0-34.98-2.58-53.34-4.1-1.82,9.33-3.77,19.13-5.63,28.95-2.35,12.37-4.62,24.75-6.97,37.11-2.31,12.15-7.67,17.47-18.16,17.47-1.72,0-3.57-.14-5.57-.42-12.97-1.81-24.95-6.09-35.49-14.08-9.66-7.32-13.08-16.76-9.07-25.43,2.99-6.47,10.15-10.44,18.65-10.44,1.92,0,3.92,.2,5.94,.63,5.93,1.23,11.7,3.25,18.29,5.12,3.09-16.23,6.05-31.8,9.13-47.99-3.46-1.2-6.31-2.18-9.16-3.16-29.72-10.22-56.85-24.93-80.09-46.33-28.27-26.02-45.32-58.6-55.51-95.2-5.8-20.83-9.07-42.08-11.38-63.53-.15-1.37-.45-2.72-.85-5-2.26,0-4.51-.02-6.75-.02-1.33,0-2.65,0-3.97,.03-1.2,.02-2.39,.03-3.59,.03-10.59,0-21.09-.92-31.37-3.64-26.73-7.07-42.77-29.81-43.55-51.6-.34-9.4,1.17-18.44,5.38-26.87,9.55-19.09,24.27-32.13,45.48-36.35,1.97-.39,3.9-.59,5.79-.59,7.91,0,15.05,3.41,20.56,10.09,6.42,7.8,7.46,16.8,3.95,26.09-3.22,8.52-9.32,14.04-18.79,14.44-.32,.01-.63,.02-.93,.02-8.02,0-13.39-4.48-16.68-11.81-.22-.49-.64-.9-1.51-2.08-9.26,7.01-13.91,15.62-13.06,26.98,.54,7.26,4.3,12.72,9.83,16.85,1.05,.79,2.69,1.1,4.3,1.1,.89,0,1.78-.1,2.55-.27,2.66-.58,5.08-2.27,7.58-3.52,7.84-3.94,15.92-6.67,25.05-6.67,2.74,0,5.57,.25,8.52,.78,.19-4.45,.31-8.48,.54-12.5,.25-4.19,.72-8.37,.9-12.56,2.22-54.34,11.69-107.27,30.44-158.43,19.05-52,46.79-98.52,86.77-137.22,24.88-24.08,53.3-42.8,86.67-52.82,11.69-3.51,23.32-5.21,34.88-5.21m2.57,623.7c32.19,0,63.34-7.52,93.32-19.72,53.29-21.68,88.06-59.86,103.41-115.61,9.22-33.47,12.47-67.58,13.65-102.22-1.98-25.08-3.53-50.21-6.04-75.23-3.84-38.34-13.31-75.39-27.01-111.4-17.55-46.16-42.67-87.45-78.44-121.83-21.47-20.64-45.87-36.67-74.58-45.46-8.7-2.66-17.51-4.52-26.6-4.52-2.4,0-4.82,.13-7.26,.41-21.34,2.43-40.42,10.76-58.51,21.74-29.73,18.04-52.91,42.92-72.92,70.94-28.39,39.75-46.43,84.23-57.93,131.34-13.36,54.72-17.72,110.34-14.23,166.6,1.55,24.97,5.35,49.47,12.44,73.45,12.05,40.78,34.94,73.57,71.48,96.07,37.62,23.17,79.12,33.97,122.79,35.33,2.14,.07,4.28,.1,6.41,.1M338.26,0c-12.6,0-25.3,1.9-37.76,5.63-32.88,9.87-62.57,27.93-90.75,55.21-19.96,19.32-37.71,41.36-52.77,65.52-14.16,22.73-26.42,48.11-36.44,75.45-13.42,36.62-22.61,75.66-27.47,116.52-7.09-7.49-16.35-11.58-26.37-11.58-2.54,0-5.15,.26-7.74,.78-23.3,4.63-40.95,18.66-52.48,41.68C1.8,358.58-.37,369.24,.05,380.91c1.01,28.19,21.98,53.24,50.98,60.91,10.11,2.68,21.21,3.98,33.93,3.98,1.23,0,2.5-.01,3.77-.04,.59-.01,1.21-.02,1.87-.02,2.73,23.97,6.32,43.51,11.25,61.23,11.62,41.75,30.72,74.42,58.37,99.88,22.95,21.12,50.3,36.96,83.61,48.42,.32,.11,.65,.22,.97,.33l-5.44,28.62c-2.8-.82-5.59-1.56-8.49-2.17-2.66-.55-5.35-.84-7.98-.84-12.48,0-23.1,6.22-27.73,16.24-6,12.98-1.36,27.39,12.11,37.59,11.34,8.59,24.47,13.83,40.15,16.01,2.49,.35,4.77,.52,6.94,.52,15.34,0,24.76-8.61,27.99-25.6,1.17-6.13,2.33-12.35,3.45-18.38,1.15-6.15,2.33-12.5,3.52-18.74,1.28-6.73,2.61-13.49,3.89-20.04,2.57,.25,5.13,.51,7.64,.77,12.29,1.25,25,2.55,37.62,2.55,12.63,0,25.29-1.3,37.53-2.56,2.42-.25,4.88-.5,7.36-.75l.06,.31c1.33,6.95,2.66,13.96,3.99,20.96,.76,4.03,1.51,8.07,2.25,12.11,1.57,8.51,3.18,17.32,4.99,25.99,3.11,15,12.92,23.26,27.62,23.26,1.08,0,2.21-.04,3.36-.13,3.62-.27,7.47-.86,12.11-1.85,13.29-2.83,25.08-8.65,35.03-17.29,10.16-8.82,13.73-21.46,9.32-32.99-4.21-11-14.63-17.84-27.17-17.84-.83,0-1.68,.03-2.53,.09-4.82,.35-9.2,1.49-13.42,2.59-.59,.15-1.16,.3-1.72,.45l-4.94-26.32-.5-2.67c.18-.08,.36-.15,.54-.23,4.33-1.91,8.82-3.79,13.16-5.6,10.32-4.32,20.99-8.78,31.15-14.32,37.41-20.42,65.5-50.26,83.48-88.7,11.03-23.58,18.62-49.99,23.2-80.75,.96-6.47,1.76-12.84,2.6-19.59,.03-.22,.06-.45,.08-.67,1.9,.02,3.83,.04,5.74,.04,3.45,0,6.31-.06,9-.2,14.36-.72,32.9-3.11,49.01-15.34,18.44-14,27.7-32.61,26.77-53.83-.68-15.48-5.4-29.08-14.03-40.42-7.92-10.4-19.18-18.92-33.47-25.3-5.67-2.53-11.51-3.82-17.35-3.82s-11.3,1.2-16.78,3.57c-4.33,1.87-8.15,4.56-11.33,7.87-2.41-20.72-5.89-40.41-10.49-59.47-18.11-75.05-48.03-134.81-91.47-182.68-27.38-30.17-57.06-51.53-90.74-65.31-17.47-7.15-35.17-10.77-52.6-10.77h0Zm2.57,623.7c-2.03,0-4.08-.03-6.1-.1-43.97-1.37-83.62-12.76-117.86-33.85-33.25-20.48-55.21-50.05-67.13-90.39-6.5-21.99-10.44-45.3-12.05-71.24-3.49-56.32,1.2-111.36,13.96-163.61,12.23-50.1,30.67-91.93,56.36-127.9,22.15-31.01,44.38-52.68,69.97-68.21,19.59-11.89,36.9-18.35,54.45-20.35,2-.23,4.06-.34,6.13-.34,7.06,0,14.58,1.3,23.68,4.08,25.41,7.78,48.5,21.88,70.58,43.11,32.96,31.69,57.83,70.34,76.02,118.17,14.16,37.22,22.79,72.82,26.4,108.84,1.72,17.15,3.01,34.71,4.26,51.69,.55,7.46,1.12,15.17,1.71,22.77-1.4,40.43-5.5,71.09-13.28,99.34-14.47,52.53-46.37,88.19-97.54,109.01-31.4,12.77-60.69,18.98-89.56,18.98h0Zm263.79-246.18c7.41,0,14.42-3.02,19.75-8.31,.03,.08,.07,.15,.1,.23,3.98,9.01,1.63,13.8-1.19,17.3-.53,.65-.96,1.17-1.3,1.56-.5-.23-1.14-.54-1.94-.95-8.82-4.51-19.49-9.11-32.06-9.42-.15-2.07-.29-4.11-.42-6.12,5.09,3.7,11.03,5.7,17.05,5.7h0Zm-549.76,10.86c-3.82-3.31-4.5-6.47-4.66-8.64-.29-3.92,.31-7.28,1.93-10.35,5.08,5.22,11.7,8,19.35,8,.45,0,.9,0,1.36-.03,6.1-.26,11.5-2.03,16.02-5.17-.09,1.14-.17,2.29-.24,3.46-.05,.78-.09,1.55-.12,2.32-9.28,.17-18.37,2.64-28.49,7.73-.87,.44-1.7,.9-2.42,1.3-.87,.48-2.15,1.2-2.72,1.37h0Z" style="fill: #fff;"/>
  </g>
  <path d="M551.22,396.15c-1.17,34.64-4.43,68.75-13.65,102.22-15.35,55.76-50.12,93.93-103.41,115.61-31.97,13-65.27,20.7-99.74,19.62-43.68-1.36-85.17-12.16-122.79-35.33-36.54-22.51-59.43-55.3-71.48-96.07-7.09-23.98-10.89-48.49-12.44-73.45-3.49-56.26,.86-111.88,14.23-166.6,11.5-47.11,29.54-91.59,57.93-131.34,20.02-28.02,43.19-52.91,72.92-70.94,18.09-10.97,37.17-19.31,58.51-21.74,11.69-1.33,22.87,.74,33.87,4.11,28.7,8.79,53.11,24.82,74.58,45.46,35.76,34.38,60.88,75.67,78.44,121.83,13.69,36,23.16,73.06,27.01,111.4,2.51,25.03,4.06,50.15,6.04,75.23Zm-209.7,185.74c3.66-.29,10.63-.77,17.58-1.42,36.26-3.4,68.38-16.95,95.24-41.42,42.76-38.96,61.78-87.6,55.46-145.34-4.92-44.94-25.27-82.24-60.38-110.49-48.86-39.3-104.78-47.54-163.89-30.78-80.75,22.9-127.98,101.89-119.05,178.67,4.42,38.02,19.4,70.95,45.92,98.51,34.31,35.66,76.85,51.69,129.13,52.27ZM423.16,106.26c-6.93-.13-11.15,2.82-12.16,7.46-1,4.55,1.41,8.82,6.95,11,11.27,4.44,18.95,12.57,24.62,22.95,.94,1.71,1.82,3.52,3.08,4.97,2.75,3.18,6.08,4.89,10.43,3.12,4.05-1.65,6.64-5.42,6.29-9.91-.15-1.91-.69-3.9-1.54-5.62-7.05-14.24-17.46-25.23-31.87-32.18-2.22-1.07-4.75-1.48-5.8-1.8Zm8.86,490.63c.79-.11,2.22-.13,3.54-.5,11.18-3.14,21.33-8.32,29.46-16.66,2.8-2.87,4.82-6.8,6.26-10.6,1.57-4.12-.55-7.64-4.13-9.98-3.41-2.24-6.91-1.77-10.17,.44-1.13,.77-2.17,1.77-2.98,2.87-5.69,7.82-13.69,12.02-22.7,14.67-1.33,.39-2.68,.79-3.94,1.37-4.76,2.16-7.18,6.2-6.4,10.51,.81,4.49,5.13,7.74,11.06,7.88Zm-29.27,5.5c5.89,.08,10.59-4.26,10.42-9.62-.16-4.97-4.89-9.15-10.23-9.06-5.41,.09-9.75,4.21-9.89,9.39-.14,5.16,4.09,9.22,9.71,9.3Zm60.68-423.6c4.97-.19,9.15-4.61,8.8-9.31-.37-4.86-4.95-8.77-9.81-8.4-4.61,.36-8.19,4.33-8.17,9.05,.03,5.24,3.85,8.85,9.18,8.65Z" style="fill: #fff;"/>
  <path d="M341.52,581.89c-52.28-.58-94.82-16.61-129.13-52.27-26.52-27.56-41.49-60.49-45.92-98.51-8.93-76.78,38.3-155.76,119.05-178.67,59.11-16.77,115.03-8.53,163.89,30.78,35.12,28.25,55.46,65.54,60.38,110.49,6.32,57.74-12.69,106.38-55.46,145.34-26.86,24.48-58.98,38.02-95.24,41.42-6.95,.65-13.92,1.13-17.58,1.42Zm-3.65-27.76c9.99-.81,20.08-.99,29.95-2.55,24.87-3.92,46.82-14.72,65.94-30.85,16.2-13.68,28.42-30.45,37.57-49.78,11.96-25.25,14.44-51.99,10.76-78.65-5.13-37.09-23.59-67.53-53.52-90.73-21.36-16.56-45.67-25.91-72.19-28.42-14.6-1.38-29.5-1.28-44.29,1.09-28.13,4.5-52.52,16.35-73.6,35.29-15.01,13.49-25.88,29.89-34.3,48.13-11.29,24.47-13.18,50.52-9.69,76.36,4.29,31.82,19.04,59.17,42.7,81.55,14.28,13.51,30.59,23.43,48.87,30.08,16.65,6.05,33.89,9.32,51.83,8.49Z" style="fill: #e8754d;"/>
  <path d="M423.16,106.26c1.05,.32,3.58,.73,5.8,1.8,14.4,6.95,24.81,17.94,31.87,32.18,.85,1.71,1.39,3.71,1.54,5.62,.35,4.49-2.24,8.26-6.29,9.91-4.34,1.77-7.67,.05-10.43-3.12-1.26-1.45-2.15-3.26-3.08-4.97-5.67-10.38-13.34-18.5-24.62-22.95-5.54-2.18-7.95-6.46-6.95-11,1.02-4.64,5.24-7.59,12.16-7.46Z" style="fill: #e8754d;"/>
  <path d="M432.02,596.89c-5.92-.14-10.25-3.39-11.06-7.88-.78-4.31,1.65-8.35,6.4-10.51,1.26-.57,2.61-.97,3.94-1.37,9.01-2.66,17.01-6.86,22.7-14.67,.8-1.1,1.85-2.11,2.98-2.87,3.26-2.22,6.76-2.68,10.17-.44,3.57,2.35,5.69,5.86,4.13,9.98-1.44,3.8-3.46,7.73-6.26,10.6-8.13,8.34-18.28,13.52-29.46,16.66-1.32,.37-2.74,.39-3.54,.5Z" style="fill: #e8754d;"/>
  <path d="M402.75,602.39c-5.62-.08-9.85-4.14-9.71-9.3,.14-5.18,4.48-9.3,9.89-9.39,5.34-.09,10.06,4.1,10.23,9.06,.18,5.36-4.53,9.71-10.42,9.62Z" style="fill: #e8754d;"/>
  <path d="M463.43,178.79c-5.32,.2-9.15-3.41-9.18-8.65-.02-4.72,3.56-8.69,8.17-9.05,4.86-.38,9.44,3.54,9.81,8.4,.36,4.69-3.82,9.12-8.8,9.31Z" style="fill: #e8754d;"/>
  <path d="M337.87,554.13c-17.93,.83-35.17-2.44-51.83-8.49-18.28-6.64-34.58-16.56-48.87-30.08-23.66-22.39-38.4-49.74-42.7-81.55-3.49-25.84-1.6-51.89,9.69-76.36,8.41-18.24,19.29-34.64,34.3-48.13,21.08-18.95,45.47-30.79,73.6-35.29,14.8-2.37,29.69-2.47,44.29-1.09,26.52,2.51,50.83,11.86,72.19,28.42,29.94,23.2,48.4,53.65,53.52,90.73,3.69,26.66,1.2,53.4-10.76,78.65-9.15,19.33-21.37,36.1-37.57,49.78-19.12,16.14-41.07,26.93-65.94,30.85-9.87,1.56-19.96,1.74-29.95,2.55Zm-.1-78.61c6.72-1.52,13.66-2.42,20.12-4.69,10.36-3.62,17.22-10.73,19.47-22.02,2.2-11.07-4.21-17.7-15.22-15.8-8.18,1.41-16.53,2.62-24.79,2.58-7.98-.04-15.98-1.61-23.91-2.85-8.41-1.32-15.87,4.05-15.06,12.23,.78,7.79,3.3,15.36,10.22,20.32,8.63,6.18,18.13,9.72,29.17,10.24Zm104.73-89.8c1.07-15.63-11.33-28.38-28.16-28.92-14.81-.48-28.02,11.01-28.45,28.14-.39,15.83,11.83,28.82,27.68,28.89,16.64,.08,29.73-12.6,28.93-28.12Zm-179.75-28.93c-16.8,.25-28.85,12.94-28.9,28.42-.05,15.59,11.89,28.32,28.66,28.64,17,.33,28.28-14.86,28.42-28.41,.13-13.07-11.07-28.92-28.18-28.65Zm68.55-41.92c3.08,0,6.17,.23,9.22-.04,9.42-.84,14.2-10.54,9.24-18.6-2.35-3.83-5.97-5.64-10.27-6.59-14.87-3.3-28.87,.1-42.49,5.66-8.07,3.29-15.6,7.65-21.41,14.4-5.69,6.6-5.88,14.41-.54,19.6,5.23,5.09,12.21,4.78,18.64-1.4,10.59-10.17,23.4-13.62,37.62-13.03Zm41.49,8.04c6.33-.23,12.05-6.44,11.82-12.85-.25-7.03-6.95-13.46-13.71-13.16-5.89,.26-12.14,7.02-12,12.99,.16,6.64,7.22,13.26,13.89,13.02Z" style="fill: #efcc71;"/>
  <path d="M337.77,475.51c-11.04-.52-20.54-4.07-29.17-10.24-6.92-4.96-9.45-12.52-10.22-20.32-.81-8.18,6.65-13.55,15.06-12.23,7.94,1.24,15.93,2.81,23.91,2.85,8.27,.04,16.61-1.17,24.79-2.58,11-1.9,17.41,4.73,15.22,15.8-2.24,11.29-9.11,18.4-19.47,22.02-6.46,2.26-13.4,3.17-20.12,4.69Z" style="fill: #e8754d;"/>
  <path d="M442.51,385.72c.8,15.52-12.3,28.19-28.93,28.12-15.85-.07-28.07-13.06-27.68-28.89,.43-17.14,13.63-28.62,28.45-28.14,16.83,.54,29.23,13.28,28.16,28.92Zm-1.82,.04c.16-4.02-2.83-6.93-7.43-7.23-5.09-.33-9.09,2.99-9.04,7.51,.04,3.38,4.72,7.53,8.62,7.64,4.28,.12,7.67-3.3,7.85-7.93Zm-17.62-22.14c-2.33,2.91-4.62,4.54-4.97,6.51-.46,2.62,2.28,3.88,4.47,3.21,1.73-.53,3.93-2.32,4.23-3.87,.25-1.34-1.88-3.13-3.73-5.85Z" style="fill: #e8754d;"/>
  <path d="M262.76,356.78c17.11-.27,28.31,15.58,28.18,28.65-.14,13.55-11.42,28.74-28.42,28.41-16.77-.32-28.71-13.06-28.66-28.64,.05-15.48,12.1-28.18,28.9-28.42Zm-18.87,36.89c4.93-.18,8.64-3.8,8.55-8.33-.08-3.81-5.13-8.31-9.13-8.13-3.43,.16-7.66,5.14-7.42,8.74,.32,4.66,3.65,7.88,8,7.72Zm16.33-24.01c-3-1.88-4.86-3.79-6.92-4.03-1.07-.12-3.5,2.7-3.52,4.21-.04,2.95,2.63,4.11,5.29,3.49,1.52-.36,2.76-1.9,5.15-3.67Z" style="fill: #e8754d;"/>
  <path d="M331.31,314.87c-14.22-.59-27.03,2.86-37.62,13.03-6.43,6.18-13.41,6.48-18.64,1.4-5.34-5.19-5.15-12.99,.54-19.6,5.82-6.75,13.35-11.11,21.41-14.4,13.62-5.56,27.62-8.96,42.49-5.66,4.3,.95,7.91,2.76,10.27,6.59,4.96,8.06,.19,17.76-9.24,18.6-3.05,.27-6.15,.04-9.22,.04Z" style="fill: #fff;"/>
  <path d="M372.8,322.91c-6.66,.24-13.73-6.38-13.89-13.02-.14-5.97,6.1-12.73,12-12.99,6.77-.3,13.47,6.13,13.71,13.16,.22,6.41-5.49,12.62-11.82,12.85Z" style="fill: #fff;"/>
  <path d="M440.68,385.76c-.18,4.63-3.57,8.05-7.85,7.93-3.9-.11-8.58-4.26-8.62-7.64-.05-4.52,3.95-7.84,9.04-7.51,4.6,.3,7.59,3.21,7.43,7.23Z" style="fill: #efcc71;"/>
  <path d="M423.06,363.62c1.85,2.72,3.99,4.51,3.73,5.85-.3,1.55-2.5,3.34-4.23,3.87-2.2,.67-4.94-.59-4.47-3.21,.35-1.97,2.64-3.6,4.97-6.51Z" style="fill: #efcc71;"/>
  <path d="M243.89,393.68c-4.35,.16-7.68-3.06-8-7.72-.24-3.6,3.99-8.58,7.42-8.74,3.99-.18,9.05,4.32,9.13,8.13,.1,4.54-3.62,8.16-8.55,8.33Z" style="fill: #efcc71;"/>
  <path d="M260.22,369.67c-2.4,1.77-3.64,3.31-5.15,3.67-2.66,.63-5.33-.54-5.29-3.49,.02-1.52,2.45-4.34,3.52-4.21,2.06,.24,3.92,2.15,6.92,4.03Z" style="fill: #efcc71;"/>
</svg>