<?xml version="1.0" encoding="utf-8"?>
<!-- Generator: Adobe Illustrator 27.0.1, SVG Export Plug-In . SVG Version: 6.00 Build 0)  -->
<svg version="1.1" id="Layer_1" xmlns="http://www.w3.org/2000/svg" xmlns:xlink="http://www.w3.org/1999/xlink" x="0px" y="0px"
	 viewBox="0 0 800 800" style="enable-background:new 0 0 800 800;" xml:space="preserve">
<style type="text/css">
	.st0{fill:#E8754D;}
	.st1{fill:#FFFFFF;}
</style>
<circle class="st0" cx="207" cy="463.8" r="37.1"/>
<circle class="st0" cx="341.3" cy="463.8" r="37.1"/>
<g>
	<g>
		<g>
			<path class="st1" d="M89.7,536.9c-7.8,0-15.1-1.1-21.5-3.2c-6.9-2.3-13.1-5.5-18.4-9.7c-5.3-4.2-10-9.2-13.9-15
				c-3.9-5.8-7.1-12.2-9.5-19.2c-2.4-6.9-4.3-14.5-5.4-22.4c-1.2-7.9-1.7-16.1-1.6-24.4c0.1-9.1,1-17.8,2.7-25.8
				c1.7-8,4.1-15.5,7.1-22.3c3.1-6.8,6.8-12.9,11.2-18.2c4.4-5.3,9.3-9.9,14.7-13.6c5.4-3.7,11.4-6.6,17.8-8.6c6.4-2,13.3-3,20.4-3
				c5.9,0,11.6,0.7,17.1,2.1c5.5,1.4,10.6,3.5,15.2,6.1c4.6,2.7,8.7,6.1,12.1,10c3.4,4,6.1,8.6,7.9,13.8c0.7,2.2,0.4,4.4-1,6.6
				c-1.2,1.9-2.9,3.7-5,5.3c-2.1,1.6-4.4,3-7.1,4.2c-2.6,1.2-5.2,2.1-7.7,2.7c-1.7,0.4-3.4,0.6-4.9,0.6c-0.8,0-1.5-0.1-2.3-0.1
				c-3.2-0.4-4.7-2.1-5.4-3.4c-2-3.5-4.8-6.3-8.4-8.1c-2.9-1.5-6.7-2.3-11.1-2.3c-1,0-2.1,0-3.1,0.1c-4.2,0.3-8.4,1.7-12.4,4.2
				c-4.1,2.5-7.8,6-11,10.5c-3.3,4.5-6,10-8.1,16.4c-2.1,6.4-3.4,13.8-3.8,22c-0.5,10,0.2,18.8,2.1,26.1c1.8,7.3,4.4,13.5,7.7,18.2
				c3.2,4.7,7,8.3,11.2,10.7c4.2,2.3,8.6,3.5,13.1,3.5c2.4,0,5-0.4,7.8-1.2c2.8-0.8,5.5-2,8.1-3.3c2.6-1.4,5-2.9,7.2-4.6
				c2.1-1.6,3.9-3.3,5.1-4.9c1.6-2,3.8-3.1,6.5-3.2c0.2,0,0.3,0,0.4,0c2.2,0,4.6,0.5,6.9,1.6c2.4,1.1,4.8,2.5,7.2,4.4
				c2.3,1.8,4.3,3.8,6,5.9c1.7,2.2,2.9,4.3,3.6,6.5c0.8,2.5,0.5,4.7-0.7,6.6c-2.7,3.8-6,7.5-10.1,10.9c-4,3.4-8.4,6.4-13.3,9
				c-4.8,2.6-10,4.7-15.4,6.2c-5.5,1.6-11,2.4-16.6,2.5C90.6,536.9,90.2,536.9,89.7,536.9z"/>
			<path d="M93.3,353.5c5.7,0,11.3,0.7,16.6,2c5.3,1.4,10.2,3.3,14.6,5.9c4.4,2.6,8.3,5.8,11.6,9.6c3.3,3.8,5.8,8.2,7.5,13.1
				c0.5,1.6,0.3,3.2-0.8,4.9c-1.1,1.7-2.6,3.3-4.5,4.8c-1.9,1.5-4.2,2.8-6.7,4c-2.5,1.2-4.9,2-7.3,2.5c-1.6,0.4-3.1,0.5-4.4,0.5
				c-0.7,0-1.3,0-2-0.1c-1.9-0.3-3.2-1.1-4-2.4c-2.2-3.9-5.2-6.9-9.2-8.9c-3.2-1.7-7.2-2.5-12-2.5c-1.1,0-2.2,0-3.3,0.1
				c-4.6,0.3-9,1.8-13.3,4.5c-4.3,2.6-8.2,6.3-11.6,11c-3.4,4.7-6.2,10.3-8.4,17c-2.2,6.6-3.5,14.1-3.9,22.5
				c-0.5,10.2,0.2,19.1,2.1,26.7c1.9,7.6,4.5,13.9,8,18.9c3.4,5,7.4,8.8,11.9,11.3c4.5,2.5,9.2,3.8,14.1,3.8c2.6,0,5.4-0.4,8.4-1.3
				c2.9-0.9,5.7-2,8.5-3.5c2.7-1.4,5.2-3,7.5-4.7c2.3-1.7,4.1-3.5,5.5-5.2c1.3-1.6,2.9-2.4,5-2.5c0.1,0,0.3,0,0.4,0
				c2,0,4,0.5,6.1,1.4c2.3,1,4.5,2.4,6.7,4.1c2.2,1.7,4.1,3.6,5.6,5.6c1.5,2,2.6,3.9,3.2,5.8c0.6,1.9,0.4,3.6-0.5,4.9
				c-2.6,3.7-5.8,7.2-9.7,10.5c-3.9,3.3-8.2,6.2-12.9,8.8c-4.7,2.5-9.7,4.5-15,6.1c-5.3,1.5-10.7,2.4-16.1,2.4c-0.5,0-0.9,0-1.4,0
				c-7.6,0-14.6-1-20.9-3.1c-6.7-2.2-12.6-5.3-17.8-9.4c-5.2-4.1-9.7-8.9-13.4-14.6c-3.8-5.7-6.9-11.9-9.3-18.8
				c-2.4-6.9-4.2-14.2-5.3-22c-1.2-7.8-1.7-15.8-1.5-24.1c0.1-9,1-17.5,2.7-25.4c1.6-7.9,4-15.2,7-21.9c3-6.7,6.6-12.6,10.9-17.8
				c4.3-5.2,9.1-9.6,14.3-13.3c5.3-3.6,11-6.4,17.3-8.3C79.8,354.4,86.4,353.5,93.3,353.5 M93.3,349.5c-7.4,0-14.4,1-21,3
				c-6.6,2-12.8,5-18.3,8.8c-5.6,3.8-10.7,8.5-15.2,14c-4.5,5.5-8.4,11.7-11.5,18.7c-3.1,6.9-5.5,14.5-7.2,22.7
				c-1.7,8.1-2.6,16.9-2.8,26.2c-0.1,8.4,0.4,16.7,1.6,24.7c1.2,8,3,15.7,5.5,22.7c2.5,7.1,5.8,13.8,9.7,19.7
				c4,6,8.8,11.2,14.3,15.5c5.5,4.3,11.9,7.7,19,10c6.7,2.2,14.1,3.3,22.2,3.3c0.5,0,1,0,1.4,0c5.7-0.1,11.5-0.9,17.1-2.6
				c5.5-1.6,10.9-3.8,15.8-6.4c5-2.6,9.5-5.7,13.6-9.2c4.1-3.5,7.6-7.3,10.4-11.3l0,0l0,0c1.1-1.7,2.2-4.5,1-8.4
				c-0.7-2.4-2-4.8-3.9-7.1c-1.7-2.2-3.9-4.3-6.3-6.3c-2.5-2-5-3.5-7.6-4.6c-2.6-1.1-5.2-1.7-7.7-1.7c-0.2,0-0.3,0-0.5,0
				c-3.3,0.1-6,1.5-8,4c-1.2,1.4-2.8,3-4.8,4.5c-2.1,1.6-4.4,3.1-6.9,4.4c-2.5,1.3-5.1,2.4-7.8,3.2c-2.5,0.8-5,1.2-7.2,1.2
				c-4.2,0-8.2-1.1-12.1-3.3c-3.9-2.2-7.5-5.6-10.6-10c-3.1-4.6-5.6-10.5-7.4-17.6c-1.8-7.2-2.5-15.8-2-25.6
				c0.4-8,1.6-15.2,3.7-21.4c2-6.2,4.7-11.5,7.8-15.8c3.1-4.2,6.6-7.6,10.5-9.9c3.7-2.3,7.6-3.6,11.5-3.9c1-0.1,2-0.1,3-0.1
				c4.1,0,7.5,0.7,10.2,2.1c3.3,1.7,5.8,4.1,7.6,7.4c0.9,1.7,2.9,3.8,6.9,4.4c0.8,0.1,1.7,0.2,2.5,0.2c1.7,0,3.5-0.2,5.3-0.6
				c2.6-0.6,5.4-1.5,8.1-2.8c2.8-1.3,5.3-2.7,7.4-4.4c2.3-1.8,4.2-3.8,5.5-5.9c2.1-3.4,1.8-6.4,1.2-8.3l0,0l0,0
				c-1.9-5.4-4.7-10.3-8.3-14.4c-3.6-4.1-7.8-7.6-12.6-10.4c-4.8-2.8-10-4.9-15.7-6.4C105.3,350.2,99.4,349.5,93.3,349.5L93.3,349.5
				z"/>
		</g>
		<g>
			<path class="st1" d="M208.7,531.9c-8.4,0-16-1.2-22.8-3.7c-6.9-2.5-13.1-6-18.3-10.4c-5.2-4.4-9.6-9.6-13-15.5
				c-3.4-5.8-6-12.1-7.6-18.7c-1.6-6.5-2.5-13.3-2.5-20.3c0-6.9,0.9-13.8,2.6-20.3c1.8-6.6,4.4-12.9,7.8-18.7
				c3.4-5.9,7.8-11.1,12.9-15.5c5.1-4.4,11.2-8,18-10.5c6.8-2.5,14.5-3.8,22.9-3.8c8.1,0,15.4,1.3,21.9,3.9
				c6.4,2.6,12.1,6.1,17,10.5c4.8,4.4,8.9,9.6,12.1,15.4c3.2,5.8,5.6,12,7.2,18.5c1.6,6.5,2.4,13.3,2.4,20.2s-0.8,13.7-2.4,20.2
				c-1.6,6.5-4,12.8-7.2,18.6c-3.2,5.8-7.2,11-12,15.4c-4.8,4.4-10.4,8-16.8,10.6c-6.4,2.6-13.6,4-21.5,4.1L208.7,531.9z
				 M206.7,431.9c-0.6,0-1.2,0-1.8,0c-4.3,0.2-8,1.3-11.1,3.2c-3.2,1.9-5.8,4.3-7.9,7.3c-2.1,3-3.7,6.4-4.8,10.1
				c-1.1,3.8-1.6,7.6-1.6,11.6c0,3.9,0.6,7.8,1.8,11.5c1.2,3.7,2.9,7,5.2,9.9c2.2,2.8,5,5.1,8.4,6.9c3.3,1.7,7.3,2.6,11.8,2.6
				c4.5,0,8.4-0.9,11.7-2.7c3.3-1.8,6.1-4.2,8.2-7.2c2.2-3,3.8-6.5,4.9-10.3c1.1-3.9,1.5-7.9,1.4-11.9c-0.1-4-0.8-8-2.1-11.9
				c-1.2-3.8-3.1-7.2-5.4-10.1c-2.3-2.9-5.2-5.1-8.6-6.8C213.8,432.7,210.4,431.9,206.7,431.9z"/>
			<path d="M208.6,396.5c7.8,0,14.9,1.3,21.1,3.8c6.2,2.5,11.7,5.9,16.4,10.1c4.7,4.3,8.6,9.2,11.7,14.9c3.1,5.7,5.4,11.7,7,18
				c1.5,6.4,2.3,12.9,2.3,19.7s-0.8,13.3-2.3,19.7c-1.6,6.4-3.9,12.4-7,18.1c-3.1,5.7-7,10.6-11.6,14.9c-4.6,4.3-10,7.7-16.2,10.2
				c-6.2,2.5-13.1,3.8-20.7,3.9c-0.2,0-0.4,0-0.7,0c-8.2,0-15.5-1.2-22.1-3.6c-6.7-2.4-12.6-5.8-17.7-10c-5-4.3-9.2-9.2-12.6-14.9
				c-3.3-5.7-5.8-11.7-7.4-18.1c-1.6-6.4-2.4-13-2.4-19.8c0-6.8,0.9-13.4,2.6-19.8c1.7-6.4,4.2-12.5,7.6-18.2
				c3.3-5.7,7.5-10.7,12.5-15c5-4.3,10.8-7.7,17.4-10.1C193.1,397.7,200.5,396.5,208.6,396.5 M206.7,496.9c4.8,0,9-1,12.6-2.9
				s6.6-4.5,8.9-7.8c2.3-3.2,4.1-6.9,5.2-11c1.1-4.1,1.6-8.3,1.5-12.5c-0.1-4.3-0.9-8.4-2.2-12.5c-1.3-4.1-3.2-7.6-5.7-10.7
				c-2.5-3.1-5.6-5.5-9.3-7.3c-3.2-1.5-6.9-2.3-11-2.3c-0.6,0-1.2,0-1.9,0.1c-4.6,0.3-8.6,1.4-12.1,3.5c-3.4,2-6.3,4.7-8.6,7.9
				c-2.3,3.2-4,6.8-5.1,10.7c-1.1,4-1.7,8-1.6,12.1c0,4.1,0.7,8.1,1.9,12.1c1.3,3.9,3.1,7.4,5.5,10.5c2.4,3.1,5.4,5.5,9,7.4
				C197.5,496,201.8,496.9,206.7,496.9 M208.6,392.5c-8.6,0-16.5,1.3-23.6,4c-7,2.6-13.2,6.3-18.6,10.8c-5.3,4.6-9.8,10-13.3,16.1
				c-3.5,6-6.2,12.5-8,19.2c-1.8,6.7-2.7,13.7-2.7,20.9c0,7.1,0.9,14.1,2.5,20.8c1.7,6.7,4.3,13.2,7.8,19.2
				c3.5,6.1,8.1,11.4,13.4,16c5.4,4.5,11.7,8.2,18.9,10.7c7,2.5,14.8,3.8,23.4,3.8c0.2,0,0.5,0,0.7,0c8.1-0.1,15.6-1.5,22.2-4.2
				c6.6-2.7,12.4-6.4,17.4-11c4.9-4.6,9.1-9.9,12.4-15.9c3.2-5.9,5.7-12.4,7.4-19.1c1.6-6.7,2.4-13.6,2.4-20.7c0-7-0.8-14-2.4-20.6
				c-1.6-6.7-4.1-13.1-7.3-19c-3.3-6-7.5-11.4-12.5-15.9c-5-4.6-10.9-8.2-17.6-10.9C224.6,393.8,217,392.5,208.6,392.5L208.6,392.5z
				 M206.7,492.9c-4.2,0-7.9-0.8-10.9-2.4c-3.1-1.6-5.7-3.7-7.7-6.3c-2.1-2.7-3.7-5.8-4.8-9.2c-1.1-3.5-1.7-7.2-1.7-10.9
				c0-3.7,0.5-7.4,1.5-11c1-3.5,2.5-6.7,4.5-9.5c1.9-2.7,4.4-5,7.3-6.7c2.9-1.7,6.3-2.7,10.2-2.9c0.5,0,1.1,0,1.6,0
				c3.5,0,6.6,0.6,9.3,1.9c3.1,1.5,5.8,3.6,7.9,6.2c2.2,2.7,3.9,5.9,5,9.5c1.2,3.7,1.9,7.5,2,11.3c0.1,3.8-0.3,7.6-1.3,11.3
				c-1,3.6-2.5,6.9-4.6,9.7c-2,2.7-4.5,4.9-7.6,6.6C214.4,492.1,210.8,492.9,206.7,492.9L206.7,492.9z"/>
		</g>
		<g>
			<path class="st1" d="M340.5,531.9c-8.4,0-16-1.2-22.8-3.7c-6.9-2.5-13.1-6-18.3-10.4c-5.2-4.4-9.6-9.6-13-15.5
				c-3.4-5.8-6-12.1-7.6-18.7c-1.6-6.5-2.5-13.3-2.5-20.3c0-6.9,0.9-13.8,2.6-20.3c1.8-6.6,4.4-12.9,7.8-18.7
				c3.4-5.9,7.8-11.1,12.9-15.5c5.1-4.4,11.2-8,18-10.5c6.8-2.5,14.5-3.8,22.9-3.8c8.1,0,15.4,1.3,21.9,3.9
				c6.4,2.6,12.1,6.1,17,10.5c4.8,4.4,8.9,9.6,12.1,15.4c3.2,5.8,5.6,12,7.2,18.5c1.6,6.5,2.4,13.3,2.4,20.2s-0.8,13.7-2.4,20.2
				c-1.6,6.5-4,12.8-7.2,18.6c-3.2,5.8-7.2,11-12,15.4c-4.8,4.4-10.4,8-16.8,10.6c-6.4,2.6-13.6,4-21.5,4.1L340.5,531.9z
				 M338.5,431.9c-0.6,0-1.2,0-1.8,0c-4.3,0.2-8,1.3-11.1,3.2c-3.2,1.9-5.8,4.3-7.9,7.3c-2.1,3-3.7,6.4-4.8,10.1
				c-1.1,3.8-1.6,7.6-1.6,11.6c0,3.9,0.6,7.8,1.8,11.5c1.2,3.7,2.9,7,5.2,9.9c2.2,2.8,5,5.1,8.4,6.9c3.3,1.7,7.3,2.6,11.8,2.6
				c4.5,0,8.4-0.9,11.7-2.7c3.3-1.8,6.1-4.2,8.2-7.2c2.2-3,3.8-6.5,4.9-10.3c1.1-3.9,1.5-7.9,1.4-11.9c-0.1-4-0.8-8-2.1-11.9
				c-1.2-3.8-3.1-7.2-5.4-10.1c-2.3-2.9-5.2-5.1-8.6-6.8C345.7,432.7,342.2,431.9,338.5,431.9z"/>
			<path d="M340.5,396.5c7.8,0,14.9,1.3,21.1,3.8c6.2,2.5,11.7,5.9,16.4,10.1c4.7,4.3,8.6,9.2,11.7,14.9c3.1,5.7,5.4,11.7,7,18
				c1.5,6.4,2.3,12.9,2.3,19.7s-0.8,13.3-2.3,19.7c-1.6,6.4-3.9,12.4-7,18.1c-3.1,5.7-7,10.6-11.6,14.9c-4.6,4.3-10,7.7-16.2,10.2
				c-6.2,2.5-13.1,3.8-20.7,3.9c-0.2,0-0.4,0-0.7,0c-8.2,0-15.5-1.2-22.1-3.6c-6.7-2.4-12.6-5.8-17.7-10c-5-4.3-9.2-9.2-12.6-14.9
				c-3.3-5.7-5.8-11.7-7.4-18.1c-1.6-6.4-2.4-13-2.4-19.8c0-6.8,0.9-13.4,2.6-19.8c1.7-6.4,4.2-12.5,7.6-18.2
				c3.3-5.7,7.5-10.7,12.5-15c5-4.3,10.8-7.7,17.4-10.1C324.9,397.7,332.3,396.5,340.5,396.5 M338.5,496.9c4.8,0,9-1,12.6-2.9
				s6.6-4.5,8.9-7.8c2.3-3.2,4.1-6.9,5.2-11c1.1-4.1,1.6-8.3,1.5-12.5c-0.1-4.3-0.9-8.4-2.2-12.5c-1.3-4.1-3.2-7.6-5.7-10.7
				c-2.5-3.1-5.6-5.5-9.3-7.3c-3.2-1.5-6.9-2.3-11-2.3c-0.6,0-1.2,0-1.9,0.1c-4.6,0.3-8.6,1.4-12.1,3.5c-3.4,2-6.3,4.7-8.6,7.9
				c-2.3,3.2-4,6.8-5.1,10.7c-1.1,4-1.7,8-1.6,12.1c0,4.1,0.7,8.1,1.9,12.1c1.3,3.9,3.1,7.4,5.5,10.5c2.4,3.1,5.4,5.5,9,7.4
				C329.3,496,333.6,496.9,338.5,496.9 M340.5,392.5c-8.6,0-16.5,1.3-23.6,4c-7,2.6-13.2,6.3-18.6,10.8c-5.3,4.6-9.8,10-13.3,16.1
				c-3.5,6-6.2,12.5-8,19.2c-1.8,6.7-2.7,13.7-2.7,20.9c0,7.1,0.9,14.1,2.5,20.8c1.7,6.7,4.3,13.2,7.8,19.2
				c3.5,6.1,8.1,11.4,13.4,16c5.4,4.5,11.7,8.2,18.9,10.7c7,2.5,14.8,3.8,23.4,3.8c0.2,0,0.5,0,0.7,0c8.1-0.1,15.6-1.5,22.2-4.2
				c6.6-2.7,12.4-6.4,17.4-11c4.9-4.6,9.1-9.9,12.4-15.9c3.2-5.9,5.7-12.4,7.4-19.1c1.6-6.7,2.4-13.6,2.4-20.7c0-7-0.8-14-2.4-20.6
				c-1.6-6.7-4.1-13.1-7.3-19c-3.3-6-7.5-11.4-12.5-15.9c-5-4.6-10.9-8.2-17.6-10.9C356.4,393.8,348.8,392.5,340.5,392.5
				L340.5,392.5z M338.5,492.9c-4.2,0-7.9-0.8-10.9-2.4c-3.1-1.6-5.7-3.7-7.7-6.3c-2.1-2.7-3.7-5.8-4.8-9.2
				c-1.1-3.5-1.7-7.2-1.7-10.9c0-3.7,0.5-7.4,1.5-11c1-3.5,2.5-6.7,4.5-9.5c1.9-2.7,4.4-5,7.3-6.7c2.9-1.7,6.3-2.7,10.2-2.9
				c0.5,0,1.1,0,1.6,0c3.5,0,6.6,0.6,9.3,1.9c3.1,1.5,5.8,3.6,7.9,6.2c2.2,2.7,3.9,5.9,5,9.5c1.2,3.7,1.9,7.5,2,11.3
				c0.1,3.8-0.3,7.6-1.3,11.3c-1,3.6-2.5,6.9-4.6,9.7c-2,2.7-4.5,4.9-7.6,6.6C346.2,492.1,342.6,492.9,338.5,492.9L338.5,492.9z"/>
		</g>
		<g>
			<path class="st1" d="M424.8,536.4c-2.7,0-5.3-0.3-7.7-0.9c-2.9-0.7-5.3-1.8-7.3-3.4c-2.2-1.8-3.4-4.2-3.3-7.2c0-2.3,0-5.5,0-9.8
				c0-4.3,0.1-9.2,0.1-14.9c0-5.7,0-11.9,0-18.6v-21c0-7.3,0-14.6,0-22c0-7.4,0-14.6,0-21.6c0-7,0-13.7,0-20c0-6.3,0.1-12,0.1-17
				c0-5.1,0-9.3,0-12.8c0-3.5,0.1-5.9,0.2-7.3c0.1-2,1.3-3.6,3.6-4.9c1.8-1,4.1-1.8,6.8-2.3c2.6-0.5,5.4-0.8,8.3-0.9
				c0.7,0,1.4,0,2,0c2.2,0,4.3,0.1,6.3,0.4c2.7,0.4,5,1,6.8,2c2.9,1.5,3.6,3.6,3.6,5l0.5,72.4l48-36.6c1-0.7,2.1-1.1,3.4-1.1
				c0.9,0,2,0.2,3.1,0.6c2.1,0.8,4.3,2.1,6.5,3.9c2.2,1.8,4.3,3.9,6.2,6.5c2,2.5,3.6,5.1,4.7,7.7c1.2,2.7,1.8,5.3,1.7,7.9
				c-0.1,2.8-1.3,5.2-3.7,7c-1.6,1.2-3.8,2.8-6.8,5l-9.9,7.4c-3.8,2.8-7.9,5.9-12.4,9.2c-4,3-8,5.9-12,8.9l59,44.9
				c1.2,0.9,2.5,2.7,2.2,6.1c-0.2,2.3-0.9,4.8-2,7.4c-1.1,2.5-2.6,5.1-4.6,7.7c-1.9,2.6-4,4.8-6.2,6.6c-2.3,1.9-4.7,3.2-7.1,3.8
				c-0.7,0.2-1.5,0.3-2.2,0.3c-2,0-3.8-0.7-5.5-2c-2.2-1.7-5.5-4.3-10-7.8c-4.5-3.5-9.7-7.5-15.5-12.1c-5.9-4.5-12.2-9.5-19.1-14.8
				c-5.9-4.6-11.8-9.1-17.5-13.6l0.3,42.4c0,2.1-1.2,3.9-3.5,5.4c-1.9,1.2-4.3,2.2-7.2,2.9c-2.8,0.7-5.8,1-8.9,1.1
				C425.6,536.4,425.2,536.4,424.8,536.4z"/>
			<path d="M427.8,353.8c2.1,0,4.1,0.1,6,0.4c2.5,0.3,4.5,0.9,6.2,1.8c1.6,0.9,2.5,1.9,2.5,3.3l0.5,76.4l51.2-39.1
				c0.6-0.5,1.3-0.7,2.2-0.7c0.7,0,1.5,0.2,2.4,0.5c1.9,0.7,3.9,1.9,6,3.6c2.1,1.7,4.1,3.7,5.9,6.1c1.9,2.4,3.4,4.8,4.5,7.3
				c1.1,2.4,1.6,4.8,1.5,7s-1,4.1-2.9,5.4c-1.6,1.2-3.9,2.9-6.8,5s-6.2,4.6-9.9,7.4c-3.8,2.8-7.9,5.9-12.4,9.2
				c-4.5,3.4-9.2,6.9-14.2,10.5l61.1,46.5c1.1,0.9,1.6,2.3,1.4,4.4c-0.2,2-0.8,4.3-1.9,6.7c-1.1,2.4-2.5,4.9-4.3,7.4
				c-1.8,2.5-3.8,4.6-5.8,6.3c-2.1,1.7-4.2,2.8-6.3,3.4c-0.6,0.1-1.1,0.2-1.7,0.2c-1.5,0-2.9-0.5-4.3-1.6c-2.2-1.7-5.5-4.3-10-7.8
				s-9.7-7.5-15.5-12.1c-5.9-4.5-12.2-9.5-19.1-14.8c-6.9-5.3-13.8-10.7-20.8-16.2l0.3,46.6c0,1.4-0.9,2.6-2.6,3.8
				c-1.7,1.1-3.9,2-6.5,2.6c-2.6,0.6-5.5,1-8.5,1.1c-0.4,0-0.8,0-1.2,0c-2.6,0-5-0.3-7.2-0.8c-2.6-0.6-4.8-1.6-6.5-3
				c-1.7-1.4-2.6-3.2-2.5-5.5c0-2.3,0-5.6,0-9.8c0-4.3,0.1-9.2,0.1-14.9c0-5.7,0-11.9,0-18.6c0-6.7,0-13.7,0-21s0-14.6,0-22
				c0-7.4,0-14.6,0-21.7c0-7,0-13.7,0-20c0-6.3,0-12,0-17.1c0-5,0-9.3,0-12.8c0-3.5,0.1-5.8,0.1-7.2c0.1-1.3,0.9-2.3,2.6-3.3
				c1.6-0.9,3.7-1.6,6.2-2.1c2.5-0.5,5.1-0.8,8-0.9C426.5,353.8,427.2,353.8,427.8,353.8 M427.8,349.8c-0.7,0-1.4,0-2.1,0
				c-3.1,0.1-6,0.4-8.7,1c-2.9,0.6-5.3,1.4-7.3,2.6c-3.6,2-4.5,4.7-4.6,6.6c-0.1,1.4-0.1,3.8-0.2,7.3c0,3.4-0.1,7.6-0.1,12.8
				c0,5.2,0,10.9,0,17c0,6.1,0,12.9,0,20c0,7,0,14.3,0,21.6c0,7.2,0,14.6,0,22v21c0,6.4,0,12.6,0,18.6c0,5.7-0.1,10.6-0.1,14.9
				c0,4.1,0,7.4,0,9.8c-0.1,3.6,1.3,6.6,4,8.7c2.2,1.7,4.9,3,8.1,3.8c2.5,0.6,5.3,0.9,8.2,0.9c0.5,0,0.9,0,1.4,0
				c3.3-0.1,6.4-0.5,9.3-1.2c3.1-0.7,5.7-1.8,7.8-3.2c3.6-2.4,4.4-5.2,4.4-7.1l-0.2-38.3c4.6,3.6,9.4,7.3,14.3,11.1
				c6.9,5.3,13.2,10.2,19.1,14.8c5.9,4.5,11,8.6,15.5,12.1c4.5,3.5,7.8,6.1,10,7.8c2.1,1.6,4.4,2.5,6.8,2.5c0.9,0,1.8-0.1,2.6-0.3
				c2.7-0.7,5.4-2.1,7.9-4.2c2.3-1.9,4.5-4.3,6.5-7c2-2.7,3.6-5.5,4.8-8.1c1.3-2.8,2-5.5,2.2-8c0.4-4.3-1.4-6.6-3-7.8L477.2,458
				c3.3-2.5,6.6-4.9,9.9-7.3c4.5-3.4,8.7-6.4,12.4-9.2l2.7-2c2.7-2,5.1-3.8,7.3-5.4c2.9-2.2,5.1-3.8,6.7-5l0,0l0,0
				c2.8-2.1,4.4-5.1,4.5-8.5c0.1-2.9-0.6-5.8-1.9-8.8c-1.2-2.7-2.9-5.4-4.9-8.1c-2.1-2.6-4.3-4.9-6.6-6.8c-2.4-1.9-4.8-3.4-7.1-4.2
				c-1.3-0.5-2.6-0.8-3.8-0.8c-1.7,0-3.3,0.5-4.6,1.5l-44.9,34.2l-0.4-68.4c0-1.6-0.6-4.7-4.6-6.8c-2.1-1.1-4.6-1.8-7.5-2.2
				C432.3,349.9,430.1,349.8,427.8,349.8L427.8,349.8z"/>
		</g>
		<g>
			<path class="st1" d="M600.1,534.8c-1.5,0-2.9,0-4.4-0.1c-8.4-0.4-16.5-2.3-24.1-5.5c-7.7-3.3-14.5-7.9-20.2-13.7
				c-5.8-5.9-10.4-13.1-13.7-21.5c-3.3-8.4-4.9-18.1-4.7-28.9c0.1-5.7,0.8-11.5,2.1-17.2c1.3-5.7,3.3-11.2,5.9-16.4
				c2.6-5.1,5.8-10,9.7-14.5c3.8-4.5,8.3-8.5,13.4-11.8c5.1-3.3,10.9-6,17.2-7.9c6.3-1.9,13.3-3,20.9-3.1c0.4,0,0.7,0,1.1,0
				c9.2,0,17.4,1.7,24.4,4.9c7.2,3.4,13.3,8,18.3,13.8c4.9,5.7,8.8,12.3,11.5,19.6c2.7,7.2,4.5,14.8,5.3,22.5c0.3,2.6,0.3,5.4,0,8.1
				c-0.3,2.8-1,5.4-1.9,7.8c-1,2.5-2.4,4.5-4,6.1c-1.8,1.8-4.1,2.7-6.7,2.8c-2.9,0.1-6.4,0.1-10.3,0.1c-2,0-4.1,0-6.3,0
				c-2.2,0-4.4,0-6.8,0l-14.8-0.1c-5.2,0-10.4-0.1-15.5-0.1c-5.2-0.1-10.3-0.1-15.3-0.1c-4,0-7.8-0.1-11.3-0.1
				c1,3.1,2.2,5.9,3.8,8.3c2,3.1,4.3,5.7,6.9,7.8c2.6,2.1,5.5,3.7,8.6,4.7c3.2,1.1,6.5,1.6,10,1.7l0.4,0c5.4,0,11-1.3,16.6-3.9
				c5.8-2.6,11.2-6.8,16.1-12.3c0.8-0.9,2.3-2,4.9-2c0.3,0,0.7,0,1.1,0.1c2.1,0.2,4.4,0.9,6.8,2c2.3,1.1,4.7,2.5,7,4.2
				c2.3,1.7,4.3,3.5,5.9,5.4c1.7,2,2.9,4,3.5,6c0.7,2.4,0.3,4.6-1.3,6.4c-4.4,4.9-9.3,9.1-14.5,12.6c-5.1,3.5-10.5,6.4-16,8.7
				c-5.5,2.2-11.1,3.8-16.8,4.8C608.5,534.4,604.3,534.8,600.1,534.8z M599.7,430.7c-0.6,0-1.2,0-1.8,0c-5.2,0.2-9.9,1.7-14,4.3
				c-3.1,1.9-5.7,4.3-8,7l45.8-0.2c-0.6-1.1-1.3-2.1-2-3.1c-1.3-1.7-3-3.2-5-4.5c-2-1.2-4.4-2.2-7.1-2.8
				C605.3,430.9,602.7,430.7,599.7,430.7z"/>
			<path d="M603.3,396.1c9,0,16.8,1.6,23.5,4.8c7,3.3,12.8,7.7,17.6,13.3s8.5,11.9,11.2,19s4.4,14.5,5.2,22c0.3,2.5,0.2,5.1,0,7.7
				c-0.3,2.6-0.9,5.1-1.8,7.3c-0.9,2.2-2.1,4-3.6,5.4c-1.5,1.4-3.3,2.2-5.4,2.2c-2.8,0.1-6.3,0.1-10.2,0.1c-2,0-4.1,0-6.2,0
				c-2.2,0-4.4,0-6.8,0c-4.7,0-9.6-0.1-14.8-0.1c-5.2,0-10.4-0.1-15.5-0.1c-5.2-0.1-10.3-0.1-15.3-0.1c-5,0-9.7-0.1-13.9-0.1
				c1.1,4.4,2.6,8.2,4.7,11.4c2.1,3.3,4.6,6,7.3,8.3c2.8,2.2,5.8,3.9,9.2,5c3.4,1.1,6.9,1.7,10.6,1.8c0.1,0,0.3,0,0.4,0
				c5.7,0,11.6-1.4,17.4-4.1c6-2.8,11.6-7,16.8-12.8c0.8-0.9,1.9-1.3,3.4-1.3c0.3,0,0.6,0,0.9,0c1.9,0.2,4,0.8,6.2,1.8
				c2.2,1,4.4,2.3,6.6,4c2.2,1.6,4.1,3.3,5.6,5.1c1.5,1.8,2.5,3.5,3.1,5.2c0.5,1.7,0.2,3.2-0.9,4.5c-4.4,4.7-9,8.8-14.1,12.3
				c-5,3.5-10.3,6.3-15.6,8.5c-5.4,2.2-10.8,3.7-16.4,4.6c-4.1,0.7-8.2,1-12.2,1c-1.4,0-2.9,0-4.3-0.1c-8.2-0.4-16-2.2-23.4-5.3
				c-7.4-3.2-14-7.6-19.6-13.3c-5.6-5.7-10-12.7-13.3-20.9c-3.3-8.2-4.8-17.6-4.6-28.1c0.1-5.6,0.8-11.2,2.1-16.8
				c1.3-5.6,3.2-10.9,5.8-15.9c2.5-5,5.7-9.8,9.4-14.1c3.7-4.4,8.1-8.2,13-11.4c4.9-3.2,10.5-5.8,16.7-7.7c6.2-1.9,12.9-2.9,20.3-3
				C602.6,396.1,602.9,396.1,603.3,396.1 M571.9,444l53-0.2c-1-2.2-2.2-4.3-3.7-6.3c-1.5-1.9-3.3-3.6-5.5-4.9
				c-2.2-1.3-4.7-2.4-7.7-3.1c-2.5-0.6-5.3-0.9-8.4-0.9c-0.6,0-1.2,0-1.8,0c-5.6,0.3-10.6,1.8-15,4.6
				C578.4,436.1,574.8,439.7,571.9,444 M603.3,392.1c-0.4,0-0.8,0-1.1,0c-7.7,0.1-14.9,1.2-21.4,3.2c-6.5,2-12.4,4.7-17.7,8.1
				c-5.2,3.4-9.9,7.5-13.9,12.2c-3.9,4.6-7.3,9.6-9.9,14.9c-2.7,5.3-4.7,10.9-6.1,16.8c-1.4,5.8-2.1,11.8-2.2,17.6
				c-0.2,11,1.4,21,4.9,29.7c3.5,8.7,8.2,16.1,14.2,22.2c5.9,6,13,10.8,20.9,14.2c7.8,3.3,16.2,5.2,24.8,5.7c1.4,0.1,3,0.1,4.5,0.1
				c4.2,0,8.5-0.4,12.8-1.1c5.9-1,11.7-2.6,17.3-4.9c5.6-2.3,11.1-5.3,16.4-8.9c5.3-3.6,10.2-8,14.8-12.9l0,0l0,0
				c2.1-2.3,2.7-5.2,1.7-8.3c-0.7-2.2-2-4.5-3.8-6.7c-1.7-2-3.8-3.9-6.3-5.7c-2.4-1.8-4.9-3.2-7.3-4.4c-2.3-1-4.5-1.7-6.5-2.1
				c0.2,0,0.4,0,0.5,0c3.9,0,7.4-0.1,10.3-0.1c3.1-0.1,5.9-1.2,8.1-3.3c1.9-1.8,3.4-4.1,4.5-6.8c1-2.5,1.7-5.3,2-8.3
				c0.3-2.9,0.3-5.8,0.1-8.6c-0.8-7.9-2.7-15.6-5.4-23c-2.8-7.5-6.8-14.3-11.9-20.2c-5.1-5.9-11.5-10.7-18.9-14.2
				C621.3,393.8,612.8,392.1,603.3,392.1L603.3,392.1z M598,432.7c0.6,0,1.1,0,1.7,0c2.8,0,5.3,0.3,7.5,0.8c2.5,0.6,4.7,1.5,6.5,2.6
				c1.7,1.1,3.1,2.3,4.3,3.9l-37.4,0.1c1.3-1.2,2.8-2.3,4.4-3.3C588.8,434.2,593.1,432.9,598,432.7L598,432.7z M599.4,499.9l-0.4,0
				c-3.2-0.1-6.4-0.6-9.4-1.6c-2.9-1-5.6-2.4-7.9-4.4c-2.4-2-4.6-4.4-6.5-7.3c-1-1.6-1.9-3.3-2.6-5.2c2.7,0,5.6,0.1,8.4,0.1
				c5,0,10.1,0.1,15.3,0.1c5.3,0.1,10.5,0.1,15.6,0.1l9.7,0.1l5.1,0c2.3,0,4.6,0,6.8,0c0.5,0,1,0,1.5,0c-2.1,0.4-3.5,1.5-4.3,2.5
				c-4.7,5.3-9.9,9.2-15.4,11.8C609.9,498.6,604.6,499.9,599.4,499.9L599.4,499.9z"/>
		</g>
		<g>
			<path class="st1" d="M688.5,537.5c-2.7,0-5.3-0.3-7.7-0.9c-2.9-0.7-5.3-1.8-7.3-3.4c-2.2-1.8-3.4-4.2-3.3-7.2
				c0.1-2.8,0.1-6.4,0.1-10.7v-73.5c0-6.4,0-12.4-0.1-17.8c0-5.4,0-10.2,0-14.3v-9.1c0-1.4,0.6-3.4,3.5-5c1.8-1,4.1-1.8,6.8-2.3
				c2.6-0.5,5.4-0.8,8.4-0.9c0.7,0,1.4,0,2,0c2.2,0,4.4,0.1,6.3,0.4c2.7,0.4,5,1,6.8,2c2.9,1.5,3.6,3.6,3.6,5l-0.2,5.8
				c2.1-1.1,4.5-2,7-2.9c3.8-1.3,7.9-2.2,12.2-2.8c2.8-0.3,5.6-0.5,8.5-0.5c1.6,0,3.3,0.1,4.9,0.2c4.6,0.3,9.3,1.1,13.8,2.5
				c4.5,1.3,8.9,3.2,13.1,5.6c4.2,2.4,8.1,5.6,11.6,9.3c1.4,1.6,2.1,3.6,2.1,6c0,2.1-0.5,4.4-1.4,6.7c-0.8,2.2-1.9,4.4-3.2,6.6
				c-1.3,2.2-2.8,4.2-4.3,5.8c-1.6,1.6-3.2,2.9-4.8,3.6c-0.9,0.4-1.8,0.7-2.6,0.7c-1.1,0-2.1-0.4-3-1.1c-3.2-2.7-6.7-4.8-10.4-6.2
				c-3.7-1.4-7.4-2.4-11.2-2.9c-2.1-0.3-4.2-0.4-6.3-0.4c-1.5,0-3.1,0.1-4.5,0.2c-3.5,0.4-6.7,1.1-9.6,2.1c-2.8,1-5.3,2.3-7.3,3.9
				c-1.8,1.4-3.1,2.8-3.9,4.4l1.1,81.5c0,2.1-1.2,3.9-3.5,5.5c-1.9,1.2-4.3,2.2-7.2,2.9c-2.8,0.7-5.8,1-8.9,1.1
				C689.3,537.5,688.9,537.5,688.5,537.5z"/>
			<path d="M690.9,394.4c2.2,0,4.2,0.1,6.1,0.4c2.5,0.3,4.5,0.9,6.2,1.8c1.6,0.9,2.5,1.9,2.5,3.3l-0.3,9.3c2.8-1.7,6-3.2,9.7-4.4
				c3.7-1.3,7.7-2.1,11.9-2.7c2.7-0.3,5.4-0.5,8.3-0.5c1.6,0,3.2,0.1,4.8,0.2c4.5,0.3,9,1.1,13.4,2.4c4.4,1.3,8.6,3.1,12.7,5.4
				c4.1,2.3,7.8,5.3,11.1,8.9c1,1.2,1.6,2.7,1.5,4.6c0,1.9-0.4,3.9-1.2,6c-0.8,2.1-1.8,4.2-3.1,6.3c-1.3,2.1-2.6,3.9-4.1,5.4
				c-1.5,1.5-2.9,2.6-4.2,3.2c-0.6,0.3-1.2,0.4-1.7,0.4c-0.6,0-1.2-0.2-1.7-0.6c-3.4-2.8-7.1-5-10.9-6.5c-3.9-1.5-7.7-2.5-11.6-3.1
				c-2.2-0.3-4.4-0.5-6.6-0.5c-1.6,0-3.2,0.1-4.8,0.3c-3.7,0.4-7,1.1-10,2.2c-3,1.1-5.7,2.5-7.9,4.2c-2.2,1.7-3.8,3.5-4.7,5.6
				l1.1,82c0,1.4-0.9,2.6-2.6,3.8c-1.7,1.1-3.9,2-6.5,2.6c-2.6,0.6-5.5,1-8.5,1.1c-0.4,0-0.8,0-1.2,0c-2.6,0-5-0.3-7.2-0.8
				c-2.6-0.6-4.8-1.6-6.5-3c-1.7-1.4-2.6-3.2-2.5-5.5c0.1-2.6,0.1-6.2,0.1-10.7c0-4.5,0-9.7,0-15.4s0-11.9,0-18.5
				c0-6.6,0-13.2,0-19.9c0-6.7,0-13.3,0-19.7c0-6.4,0-12.4-0.1-17.8c0-5.4,0-10.2,0-14.3c0-4.1,0-7.1,0-9.1c0-1.3,0.8-2.3,2.5-3.3
				c1.6-0.9,3.7-1.6,6.2-2.1c2.5-0.5,5.2-0.8,8.1-0.9C689.6,394.4,690.3,394.4,690.9,394.4 M690.9,390.4c-0.7,0-1.4,0-2.1,0
				c-3.1,0.1-6,0.4-8.7,1c-2.9,0.6-5.3,1.4-7.4,2.6c-3.9,2.2-4.5,5.2-4.5,6.8v9.1c0,4.1,0,8.9,0,14.3c0,6.1,0.1,11.9,0.1,17.8v19.7
				v19.9v18.5v15.4c0,4.3,0,7.9-0.1,10.6c-0.1,3.6,1.3,6.6,4,8.8c2.2,1.7,4.9,3,8.1,3.8c2.5,0.6,5.3,0.9,8.2,0.9c0.5,0,0.9,0,1.4,0
				c3.3-0.1,6.4-0.5,9.3-1.2c3.1-0.7,5.7-1.8,7.8-3.2c3.6-2.4,4.4-5.2,4.4-7.1v0l0,0l-1.1-81c0.7-1.2,1.7-2.3,3.1-3.3
				c1.9-1.4,4.2-2.6,6.8-3.6c2.7-1,5.8-1.7,9.1-2c1.4-0.2,2.9-0.2,4.3-0.2c2,0,4,0.1,6,0.4c3.6,0.5,7.2,1.4,10.7,2.8
				c3.4,1.4,6.7,3.3,9.8,5.9c1.2,1,2.7,1.6,4.3,1.6c1.1,0,2.3-0.3,3.5-0.9c1.8-0.9,3.5-2.2,5.3-4c1.7-1.7,3.2-3.8,4.6-6.1
				c1.4-2.3,2.5-4.7,3.4-7c0.9-2.5,1.4-5,1.5-7.4c0-2.9-0.8-5.4-2.5-7.4l0,0l0,0c-3.6-3.9-7.7-7.2-12.1-9.7
				c-4.3-2.5-8.9-4.4-13.5-5.8c-4.6-1.4-9.4-2.2-14.2-2.5c-1.7-0.1-3.4-0.2-5.1-0.2c-3,0-5.9,0.2-8.8,0.5c-4.4,0.6-8.7,1.5-12.6,2.8
				c-1.5,0.5-2.9,1-4.3,1.6l0.1-2.5l0-0.1v-0.1c0-1.6-0.6-4.7-4.6-6.8c-2.1-1.1-4.6-1.8-7.5-2.2
				C695.4,390.5,693.2,390.4,690.9,390.4L690.9,390.4z"/>
		</g>
	</g>
</g>
<g>
	<g>
		<g>
			<path class="st1" d="M129.6,335.8c-4.3-0.1-9.1-0.1-14.8-0.1H97.2c-6.1,0-12.4,0-18.7,0c-6.3,0-12.4,0-18.3,0
				c-5.1,0-9.4-0.3-12.8-0.8c-3.6-0.5-6.5-1.4-8.8-2.5c-2.4-1.2-4.3-2.9-5.5-5c-1.1-2-1.9-4.3-2.4-7.1c-0.4-2.6-0.6-5.6-0.6-9.1
				v-11.4l-0.3-111.3v-11.4c0-3.4,0.2-6.5,0.6-9.1c0.4-2.7,1.2-5.1,2.4-7.1c1.2-2.1,3.1-3.7,5.5-5c2.3-1.1,5.2-2,8.7-2.5
				c3.4-0.5,7.7-0.8,12.9-0.8c5.9,0,12,0,18.3,0c6.3,0,12.6,0,18.7,0h17.6c5.7,0,10.6,0,14.9-0.1c3,0,5.3,1.1,7.1,3.2
				c1.6,1.9,2.7,4.3,3.4,7.1c0.7,2.7,1,5.7,0.8,8.9c-0.1,3.1-0.5,6.1-1.1,8.8c-0.7,2.8-1.6,5.2-2.9,7.1c-1.5,2.3-3.3,3.5-5.4,3.5
				H68.7l0.1,36l55.8-0.2c2.1,0,3.9,1.2,5.4,3.5c1.2,1.9,2.2,4.3,2.9,7.1c0.7,2.7,1,5.7,1.1,8.9c0.1,3.2-0.2,6.2-0.8,9
				c-0.7,2.9-1.8,5.3-3.4,7.3c-1.7,2.1-4.1,3.3-6.9,3.3l-54.1-0.6l0.1,32.2h62.6c2.1,0,3.9,1.1,5.4,3.4c1.2,1.9,2.2,4.2,2.9,7
				c0.7,2.7,1,5.6,1.1,8.6c0.1,3.1-0.2,6-0.9,8.7c-0.7,2.8-1.8,5.2-3.4,7.1c-1.7,2.1-4,3.2-6.8,3.2L129.6,335.8z"/>
			<path d="M129.3,154.8c2.3,0,4.2,0.8,5.5,2.5c1.4,1.7,2.4,3.8,3,6.3c0.6,2.5,0.9,5.3,0.8,8.3c-0.1,3-0.5,5.8-1.1,8.4
				c-0.6,2.6-1.5,4.7-2.6,6.4c-1.1,1.7-2.4,2.6-3.8,2.6H66.7l0.1,40l57.8-0.2c1.4,0,2.6,0.9,3.8,2.6c1.1,1.7,2,3.9,2.6,6.5
				c0.6,2.6,1,5.4,1.1,8.5c0.1,3-0.2,5.8-0.8,8.5c-0.6,2.6-1.6,4.8-3,6.5c-1.3,1.7-3.1,2.5-5.3,2.5c-0.1,0-0.2,0-0.2,0l-55.9-0.6
				l0.1,36.2h64.6c1.4,0,2.6,0.8,3.8,2.5c1.1,1.7,2,3.8,2.6,6.3c0.6,2.5,1,5.3,1.1,8.2c0.1,2.9-0.2,5.7-0.8,8.2
				c-0.6,2.5-1.6,4.6-3,6.3c-1.3,1.6-3.1,2.4-5.3,2.4c-0.1,0-0.2,0-0.2,0c-4.4-0.1-9.3-0.1-14.9-0.1c-5.6,0-11.4,0-17.6,0
				c-6.1,0-12.4,0-18.7,0c-6.3,0-12.4,0-18.3,0c-5,0-9.2-0.2-12.6-0.7s-6.1-1.3-8.2-2.3c-2.1-1.1-3.6-2.5-4.6-4.2
				c-1-1.7-1.7-3.9-2.1-6.4c-0.4-2.5-0.6-5.4-0.6-8.8c0-3.3,0-7.1,0-11.4l-0.3-111.3c0-4.3,0-8.1,0-11.4c0-3.3,0.2-6.2,0.6-8.8
				c0.4-2.5,1.1-4.6,2.1-6.4c1-1.7,2.6-3.1,4.6-4.2c2.1-1.1,4.8-1.8,8.1-2.3c3.3-0.5,7.5-0.7,12.6-0.7c5.9,0,12,0,18.3,0
				c6.3,0,12.6,0,18.7,0c6.1,0,12,0,17.6,0C120,154.9,125,154.9,129.3,154.8 M129.3,150.8L129.3,150.8L129.3,150.8
				c-4.3,0.1-9.2,0.1-14.9,0.1H96.9c-6.3,0-12.5,0-18.7,0c-6.8,0-12.7,0-18.3,0c-5.3,0-9.7,0.3-13.2,0.8c-3.8,0.6-6.8,1.4-9.3,2.7
				c-2.8,1.4-4.9,3.3-6.3,5.8c-1.3,2.2-2.1,4.8-2.6,7.8c-0.4,2.7-0.6,5.9-0.6,9.4v11.4L28.1,300v11.4c0,3.5,0.2,6.7,0.6,9.4
				c0.5,3,1.4,5.6,2.6,7.8c1.4,2.4,3.5,4.3,6.3,5.8c2.5,1.3,5.6,2.2,9.4,2.7c3.5,0.5,8,0.8,13.1,0.8c5.6,0,11.6,0,18.3,0
				c6.1,0,12.4,0,18.7,0h17.6c5.7,0,10.6,0,14.8,0.1c0.1,0,0.2,0,0.3,0c3.4,0,6.3-1.3,8.4-3.9c1.8-2.1,3-4.8,3.8-7.8
				c0.7-2.8,1-6,0.9-9.3c-0.1-3.2-0.5-6.2-1.2-9c-0.7-3-1.8-5.5-3.2-7.6c-2.4-3.6-5.2-4.3-7.1-4.3H70.9l-0.1-28.1l51.8,0.5
				c0.1,0,0.2,0,0.3,0c3.4,0,6.3-1.4,8.4-4c1.7-2.2,3-4.9,3.8-8.1c0.7-2.9,1-6.2,0.9-9.5c-0.1-3.3-0.5-6.4-1.2-9.3
				c-0.7-3-1.8-5.6-3.1-7.8c-2.4-3.7-5.2-4.5-7.1-4.5l-53.9,0.2l-0.1-32h60.6c1.9,0,4.7-0.8,7.1-4.4c1.4-2.1,2.4-4.7,3.2-7.7
				c0.7-2.8,1.1-5.9,1.2-9.2c0.1-3.3-0.2-6.5-0.9-9.4c-0.8-3.1-2.1-5.8-3.8-7.9C135.8,152.2,132.8,150.8,129.3,150.8L129.3,150.8z"
				/>
		</g>
		<g>
			<path class="st1" d="M211.6,379.3c-0.7,0-1.5,0-2.2,0c-7.7-0.2-14.6-0.9-20.5-2c-5.9-1.1-11.1-2.5-15.4-4.1
				c-4.4-1.6-8.1-3.4-11-5.3c-2.9-1.9-5.4-3.8-7.2-5.7c-2-2-3.2-4.5-3.6-7.5c-0.4-2.8-0.2-5.6,0.5-8.3c0.7-2.7,1.8-5.4,3.4-7.9
				c1.6-2.5,3.4-4.6,5.5-6.3c2.2-1.7,4.5-2.7,6.9-3.1c0.4-0.1,0.9-0.1,1.3-0.1c2.2,0,4.3,0.8,6.3,2.3l0.1,0.1l0.1,0.1
				c2.7,2.5,6,4.7,9.8,6.5c3.9,1.8,8,3.1,12.2,3.8c2.8,0.5,5.6,0.8,8.4,0.8c1.4,0,2.8-0.1,4.2-0.2c4.1-0.4,7.8-1.4,11-3.1
				c3.2-1.7,5.8-4,7.9-7.1c1.6-2.3,2.6-5.1,3.1-8.5c-2.6,1-5.2,1.7-8,2.3c-3.9,0.8-8.1,1.3-12.4,1.3l-0.7,0c-8.4,0-16-1.2-22.7-3.5
				c-6.9-2.4-13-5.7-18.2-9.9c-5.2-4.2-9.6-9.2-13-14.8c-3.4-5.6-6-11.6-7.6-17.9c-1.7-6.3-2.5-12.8-2.5-19.4
				c0-6.6,0.9-13.2,2.6-19.5c1.8-6.3,4.4-12.4,7.8-18c3.4-5.6,7.8-10.6,12.9-14.9c5.1-4.3,11.2-7.6,17.9-10.1
				c6.8-2.4,14.5-3.7,22.8-3.7c4.9,0,9.5,0.5,13.7,1.5c3.3,0.8,6.5,1.8,9.5,3.1c0.5-1,1.3-2.1,2.9-3.1c1.9-1.2,4.2-2.2,7-2.9
				c2.7-0.7,5.7-1,8.8-1.1c0.4,0,0.9,0,1.3,0c2.7,0,5.3,0.3,7.7,0.9c2.9,0.7,5.4,1.8,7.4,3.4c2.3,1.8,3.5,4.1,3.5,7.1
				c0.2,5.2,0.4,10.5,0.5,16.4c0.1,5.7,0.2,11.3,0.3,16.7c0.1,5.5,0.1,10.9,0.1,16.2c0,5.3,0.1,10.4,0.1,15.1c0,4.7,0,9.1-0.1,13.3
				c-0.1,4.1-0.1,7.7-0.2,10.8c-0.1,7-0.5,14.1-1,21c-0.6,6.9-1.4,13.2-2.4,18.6c-1.5,7.7-4.1,14.6-7.6,20.5
				c-3.6,5.9-8.1,10.9-13.4,14.9c-5.3,4-11.4,6.9-18.1,8.9C225.1,378.4,218.5,379.3,211.6,379.3z M209.4,233.1c-0.6,0-1.3,0-1.9,0.1
				c-4.3,0.2-8.1,1.2-11.2,3c-3.2,1.7-5.8,4-7.9,6.7c-2.1,2.7-3.7,5.8-4.8,9.2c-1.1,3.4-1.6,6.9-1.5,10.5c0,3.5,0.6,7,1.8,10.4
				c1.2,3.3,2.9,6.4,5.1,8.9c2.2,2.6,5,4.7,8.4,6.3c3.3,1.6,7.3,2.4,11.9,2.4c4.5,0,8.4-0.8,11.7-2.5c3.3-1.6,6.1-3.8,8.2-6.6
				c2.2-2.8,3.8-5.9,4.8-9.4c1.1-3.5,1.5-7.2,1.4-10.8c-0.1-3.7-0.8-7.3-2.1-10.8c-1.2-3.5-3-6.6-5.4-9.2c-2.3-2.6-5.2-4.7-8.6-6.2
				C216.5,233.7,213.1,233.1,209.4,233.1z"/>
			<path d="M254.4,195c2.6,0,5,0.3,7.3,0.8c2.6,0.6,4.8,1.6,6.6,3c1.8,1.4,2.7,3.2,2.8,5.5c0.2,5.3,0.4,10.8,0.5,16.4
				c0.1,5.6,0.2,11.2,0.3,16.7c0.1,5.5,0.1,10.9,0.1,16.2c0,5.3,0,10.4,0,15.1c0,4.8,0,9.2-0.1,13.3c-0.1,4.1-0.1,7.7-0.2,10.8
				c-0.1,7.1-0.5,14-1,20.9c-0.6,6.9-1.3,13-2.3,18.4c-1.5,7.5-3.9,14.1-7.4,19.8c-3.5,5.7-7.8,10.5-12.9,14.3
				c-5.1,3.8-11,6.7-17.5,8.6c-5.9,1.7-12.2,2.5-19,2.5c-0.7,0-1.4,0-2.2,0c-7.6-0.2-14.4-0.8-20.2-1.9c-5.8-1.1-10.8-2.4-15.1-4
				c-4.3-1.6-7.8-3.3-10.6-5.1c-2.8-1.8-5.1-3.7-6.8-5.4c-1.7-1.7-2.7-3.8-3.1-6.3c-0.3-2.5-0.2-5,0.5-7.6c0.7-2.5,1.7-5,3.2-7.3
				c1.5-2.3,3.1-4.3,5-5.7c1.9-1.5,3.9-2.4,5.9-2.7c0.3,0,0.7-0.1,1-0.1c1.7,0,3.4,0.6,5.1,1.9c2.8,2.7,6.3,5,10.3,6.8
				c4.1,1.8,8.3,3.2,12.7,4c2.9,0.5,5.9,0.8,8.8,0.8c1.5,0,2.9-0.1,4.4-0.2c4.4-0.4,8.3-1.5,11.8-3.3c3.5-1.8,6.4-4.4,8.7-7.7
				c2.3-3.3,3.5-7.6,3.7-12.7c-3.4,1.5-6.9,2.7-10.7,3.5c-3.8,0.8-7.8,1.2-12.1,1.3c-0.2,0-0.5,0-0.7,0c-8.2,0-15.5-1.1-22.1-3.4
				c-6.7-2.3-12.6-5.5-17.7-9.6c-5-4.1-9.2-8.8-12.6-14.3c-3.3-5.5-5.8-11.3-7.4-17.4c-1.6-6.1-2.4-12.4-2.4-18.9
				c0-6.5,0.9-12.8,2.6-19c1.7-6.2,4.2-12,7.6-17.5c3.3-5.5,7.5-10.3,12.5-14.4c5-4.1,10.8-7.4,17.4-9.7c6.6-2.4,14-3.6,22.2-3.6
				c4.7,0,9.2,0.5,13.3,1.4c4.1,1,7.9,2.3,11.5,4v-0.6c-0.1-1.4,0.7-2.6,2.4-3.8c1.7-1.1,3.8-2,6.4-2.6c2.6-0.6,5.4-1,8.4-1.1
				C253.6,195,254,195,254.4,195 M209.2,292.4c4.8,0,9-0.9,12.6-2.7c3.6-1.8,6.6-4.2,8.9-7.1c2.3-3,4.1-6.3,5.2-10.1
				c1.1-3.8,1.6-7.6,1.5-11.5c-0.1-3.9-0.9-7.7-2.2-11.4c-1.3-3.7-3.2-7-5.7-9.8c-2.5-2.8-5.6-5.1-9.3-6.7
				c-3.2-1.4-6.8-2.1-10.8-2.1c-0.7,0-1.3,0-2,0.1c-4.6,0.3-8.6,1.3-12.1,3.2c-3.4,1.9-6.3,4.3-8.6,7.2c-2.3,2.9-4,6.2-5.1,9.8
				c-1.1,3.6-1.7,7.3-1.6,11.1c0,3.8,0.7,7.4,1.9,11c1.3,3.6,3.1,6.8,5.5,9.6c2.4,2.8,5.4,5.1,9,6.8
				C200.1,291.6,204.4,292.4,209.2,292.4 M254.4,191c-0.5,0-0.9,0-1.4,0c-3.3,0.1-6.4,0.5-9.2,1.2c-3,0.7-5.6,1.8-7.7,3.2
				c-1.1,0.7-1.9,1.5-2.6,2.3c-2.6-1-5.4-1.9-8.2-2.5c-4.4-1-9.1-1.5-14.2-1.5c-8.6,0-16.5,1.3-23.5,3.8c-7,2.5-13.2,6-18.5,10.4
				c-5.3,4.4-9.8,9.6-13.3,15.4c-3.5,5.8-6.2,12-8,18.5c-1.8,6.5-2.7,13.2-2.7,20.1c0,6.8,0.9,13.5,2.6,20
				c1.7,6.5,4.4,12.7,7.9,18.5c3.5,5.8,8.1,11,13.5,15.3c5.4,4.3,11.7,7.8,18.8,10.3c6.9,2.4,14.8,3.6,23.4,3.6c0.2,0,0.5,0,0.7,0
				c4.5-0.1,8.9-0.5,12.9-1.4c1.7-0.3,3.3-0.8,4.9-1.2c-0.5,1.6-1.2,3.1-2,4.3c-1.9,2.8-4.3,4.9-7.2,6.4c-3,1.6-6.5,2.5-10.3,2.9
				c-1.3,0.1-2.7,0.2-4,0.2c-2.7,0-5.4-0.2-8.1-0.7c-4.1-0.7-8-2-11.8-3.7c-3.6-1.7-6.7-3.7-9.2-6.1l-0.2-0.1l-0.2-0.1
				c-2.4-1.8-4.9-2.7-7.5-2.7c-0.5,0-1.1,0-1.6,0.1c-2.8,0.4-5.4,1.6-7.8,3.5c-2.2,1.8-4.2,4-5.9,6.8c-1.7,2.7-2.9,5.5-3.6,8.4
				c-0.8,3-1,6.1-0.6,9.1c0.4,3.4,1.9,6.3,4.2,8.6c1.9,2,4.4,4,7.5,6c3.1,2,6.9,3.9,11.4,5.5c4.4,1.7,9.7,3.1,15.7,4.2
				c6,1.1,13,1.8,20.8,2c0.8,0,1.5,0,2.3,0c7.1,0,13.9-0.9,20.1-2.7c7-2,13.3-5.1,18.8-9.2c5.5-4.1,10.2-9.3,13.9-15.4
				c3.7-6.1,6.3-13.2,7.9-21.1c1-5.5,1.8-11.9,2.4-18.8c0.6-6.9,0.9-14,1-21.1c0.1-3.1,0.1-6.7,0.2-10.8c0.1-4.2,0.1-8.7,0.1-13.4
				c0-4.9,0-10,0-15.2c0-5.7-0.1-11-0.1-16.2c-0.1-5.4-0.2-11-0.3-16.7c-0.1-5.9-0.3-11.3-0.5-16.5c-0.1-3.5-1.6-6.4-4.3-8.5
				c-2.2-1.7-5-3-8.2-3.7C260,191.3,257.2,191,254.4,191L254.4,191z M209.2,288.4c-4.3,0-8-0.7-11-2.2c-3.1-1.5-5.7-3.4-7.7-5.8
				c-2.1-2.4-3.7-5.2-4.7-8.3c-1.1-3.2-1.7-6.4-1.7-9.7c0-3.3,0.5-6.6,1.5-9.9c1-3.1,2.5-6,4.4-8.6c1.9-2.5,4.4-4.6,7.3-6.2
				c2.9-1.6,6.4-2.5,10.4-2.7c0.6,0,1.2,0,1.8,0c3.5,0,6.6,0.6,9.2,1.7c3.1,1.4,5.8,3.3,7.9,5.7c2.1,2.4,3.8,5.3,5,8.5
				c1.2,3.3,1.8,6.8,1.9,10.2c0.1,3.4-0.3,6.9-1.3,10.2c-1,3.3-2.5,6.2-4.5,8.7c-2,2.5-4.5,4.5-7.5,6
				C217.1,287.7,213.4,288.4,209.2,288.4L209.2,288.4z"/>
		</g>
		<g>
			<path class="st1" d="M345.7,379.3c-0.7,0-1.5,0-2.2,0c-7.7-0.2-14.6-0.9-20.5-2c-5.9-1.1-11.1-2.5-15.4-4.1
				c-4.4-1.6-8.1-3.4-11-5.3c-2.9-1.9-5.4-3.8-7.2-5.7c-2-2-3.2-4.5-3.6-7.5c-0.4-2.8-0.2-5.6,0.5-8.3c0.7-2.7,1.8-5.4,3.4-7.9
				c1.6-2.5,3.4-4.6,5.5-6.3c2.2-1.7,4.5-2.7,6.9-3.1c0.4-0.1,0.9-0.1,1.3-0.1c2.2,0,4.3,0.8,6.3,2.3l0.1,0.1l0.1,0.1
				c2.7,2.5,6,4.7,9.8,6.5c3.9,1.8,8,3.1,12.2,3.8c2.8,0.5,5.6,0.8,8.4,0.8c1.4,0,2.8-0.1,4.2-0.2c4.1-0.4,7.8-1.4,11-3.1
				c3.2-1.7,5.8-4,7.9-7.1c1.6-2.3,2.6-5.1,3.1-8.5c-2.6,1-5.2,1.7-8,2.3c-3.9,0.8-8.1,1.3-12.4,1.3l-0.7,0c-8.3,0-16-1.2-22.7-3.5
				c-6.9-2.4-13-5.7-18.2-9.9c-5.2-4.2-9.6-9.2-13-14.8c-3.4-5.6-6-11.6-7.6-17.9c-1.7-6.3-2.5-12.8-2.5-19.4
				c0-6.6,0.9-13.2,2.6-19.5c1.8-6.3,4.4-12.4,7.8-18c3.4-5.6,7.8-10.6,12.9-14.9c5.1-4.3,11.2-7.6,18-10.1
				c6.8-2.4,14.5-3.7,22.8-3.7c4.9,0,9.5,0.5,13.7,1.5c3.3,0.8,6.5,1.8,9.5,3.1c0.5-1,1.3-2.1,2.9-3.1c1.9-1.2,4.2-2.2,7-2.9
				c2.7-0.7,5.7-1,8.8-1.1c0.4,0,0.9,0,1.3,0c2.7,0,5.3,0.3,7.7,0.9c2.9,0.7,5.4,1.8,7.4,3.4c2.3,1.8,3.5,4.1,3.5,7.1
				c0.2,5.1,0.4,10.5,0.5,16.4c0.1,5.6,0.2,11.3,0.3,16.7c0.1,5.5,0.1,10.9,0.1,16.2c0,5.3,0,10.4,0,15.1c0,4.7,0,9.2-0.1,13.3
				c-0.1,4.1-0.1,7.7-0.2,10.8c-0.1,7.1-0.5,14.1-1,21c-0.6,6.9-1.4,13.2-2.4,18.6c-1.5,7.7-4.1,14.6-7.6,20.5
				c-3.6,5.9-8.1,10.9-13.4,14.9c-5.3,4-11.4,6.9-18.1,8.9C359.2,378.4,352.6,379.3,345.7,379.3z M343.5,233.1c-0.6,0-1.3,0-1.9,0.1
				c-4.3,0.2-8.1,1.2-11.2,3c-3.2,1.7-5.8,4-7.9,6.7c-2.1,2.7-3.7,5.8-4.8,9.2c-1.1,3.4-1.6,6.9-1.5,10.5c0,3.5,0.6,7,1.8,10.4
				c1.2,3.3,2.9,6.4,5.1,8.9c2.2,2.6,5,4.7,8.4,6.3c3.3,1.6,7.3,2.4,11.9,2.4c4.5,0,8.4-0.8,11.7-2.5c3.3-1.6,6.1-3.8,8.2-6.6
				c2.2-2.8,3.8-5.9,4.8-9.4c1.1-3.5,1.5-7.2,1.4-10.8c-0.1-3.7-0.8-7.3-2.1-10.8c-1.2-3.5-3-6.6-5.4-9.2c-2.3-2.6-5.2-4.7-8.6-6.2
				C350.6,233.7,347.2,233.1,343.5,233.1z"/>
			<path d="M388.5,195c2.6,0,5,0.3,7.3,0.8c2.6,0.6,4.8,1.6,6.6,3c1.8,1.4,2.7,3.2,2.8,5.5c0.2,5.3,0.4,10.8,0.5,16.4
				c0.1,5.6,0.2,11.2,0.3,16.7c0.1,5.5,0.1,10.9,0.1,16.2c0,5.3,0,10.4,0,15.1c0,4.8,0,9.2-0.1,13.3c-0.1,4.1-0.1,7.7-0.2,10.8
				c-0.1,7.1-0.5,14-1,20.9c-0.6,6.9-1.3,13-2.3,18.4c-1.5,7.5-3.9,14.1-7.4,19.8c-3.5,5.7-7.8,10.5-12.9,14.3
				c-5.1,3.8-11,6.7-17.5,8.6c-5.9,1.7-12.2,2.5-19,2.5c-0.7,0-1.4,0-2.2,0c-7.6-0.2-14.4-0.8-20.2-1.9c-5.8-1.1-10.8-2.4-15.1-4
				c-4.3-1.6-7.8-3.3-10.6-5.1c-2.8-1.8-5.1-3.7-6.8-5.4c-1.7-1.7-2.7-3.8-3.1-6.3c-0.3-2.5-0.2-5,0.5-7.6c0.7-2.5,1.7-5,3.2-7.3
				c1.5-2.3,3.1-4.3,5-5.7c1.9-1.5,3.9-2.4,5.9-2.7c0.3,0,0.7-0.1,1-0.1c1.7,0,3.4,0.6,5.1,1.9c2.8,2.7,6.3,5,10.3,6.8
				s8.3,3.2,12.7,4c2.9,0.5,5.9,0.8,8.8,0.8c1.5,0,2.9-0.1,4.4-0.2c4.4-0.4,8.3-1.5,11.8-3.3c3.5-1.8,6.4-4.4,8.7-7.7
				c2.3-3.3,3.5-7.6,3.7-12.7c-3.4,1.5-6.9,2.7-10.7,3.5c-3.8,0.8-7.8,1.2-12.1,1.3c-0.2,0-0.5,0-0.7,0c-8.2,0-15.5-1.1-22.1-3.4
				c-6.7-2.3-12.6-5.5-17.7-9.6c-5-4.1-9.2-8.8-12.6-14.3c-3.3-5.5-5.8-11.3-7.4-17.4c-1.6-6.1-2.4-12.4-2.4-18.9
				c0-6.5,0.9-12.8,2.6-19c1.7-6.2,4.2-12,7.6-17.5c3.3-5.5,7.5-10.3,12.5-14.4c5-4.1,10.8-7.4,17.4-9.7c6.6-2.4,14-3.6,22.2-3.6
				c4.7,0,9.2,0.5,13.3,1.4c4.1,1,7.9,2.3,11.5,4v-0.6c-0.1-1.4,0.7-2.6,2.4-3.8c1.7-1.1,3.8-2,6.4-2.6c2.6-0.6,5.4-1,8.4-1.1
				C387.6,195,388.1,195,388.5,195 M343.3,292.4c4.8,0,9-0.9,12.6-2.7c3.6-1.8,6.6-4.2,8.9-7.1c2.3-3,4.1-6.3,5.2-10.1
				c1.1-3.8,1.6-7.6,1.5-11.5c-0.1-3.9-0.9-7.7-2.2-11.4c-1.3-3.7-3.2-7-5.7-9.8c-2.5-2.8-5.6-5.1-9.3-6.7
				c-3.2-1.4-6.8-2.1-10.8-2.1c-0.7,0-1.3,0-2,0.1c-4.6,0.3-8.6,1.3-12.1,3.2c-3.4,1.9-6.3,4.3-8.6,7.2c-2.3,2.9-4,6.2-5.1,9.8
				c-1.1,3.6-1.7,7.3-1.6,11.1c0,3.8,0.7,7.4,1.9,11c1.3,3.6,3.1,6.8,5.5,9.6c2.4,2.8,5.4,5.1,9,6.8
				C334.2,291.6,338.5,292.4,343.3,292.4 M388.5,191c-0.5,0-0.9,0-1.4,0c-3.3,0.1-6.4,0.5-9.2,1.2c-3,0.7-5.6,1.8-7.7,3.2
				c-1.1,0.7-1.9,1.5-2.6,2.3c-2.6-1-5.4-1.9-8.2-2.5c-4.4-1-9.1-1.5-14.2-1.5c-8.6,0-16.5,1.3-23.5,3.8c-7,2.5-13.2,6-18.5,10.4
				c-5.3,4.4-9.8,9.6-13.3,15.4c-3.5,5.8-6.2,12-8,18.5c-1.8,6.5-2.7,13.2-2.7,20.1c0,6.8,0.9,13.5,2.6,20
				c1.7,6.5,4.4,12.7,7.9,18.5c3.5,5.8,8.1,11,13.5,15.3c5.4,4.3,11.7,7.8,18.8,10.3c6.9,2.4,14.8,3.6,23.4,3.6c0.2,0,0.5,0,0.7,0
				c4.5-0.1,8.9-0.5,12.9-1.4c1.7-0.3,3.3-0.8,4.9-1.2c-0.5,1.6-1.2,3.1-2,4.3c-1.9,2.8-4.3,4.9-7.2,6.4c-3,1.6-6.5,2.5-10.3,2.9
				c-1.3,0.1-2.7,0.2-4,0.2c-2.7,0-5.4-0.2-8.1-0.7c-4.1-0.7-8-2-11.8-3.7c-3.6-1.7-6.7-3.7-9.2-6.1l-0.2-0.1l-0.2-0.1
				c-2.4-1.8-4.9-2.7-7.5-2.7c-0.5,0-1.1,0-1.6,0.1c-2.8,0.4-5.4,1.6-7.8,3.5c-2.2,1.8-4.2,4-5.9,6.8c-1.7,2.7-2.9,5.5-3.6,8.4
				c-0.8,3-1,6.1-0.6,9.1c0.4,3.4,1.9,6.3,4.2,8.6c1.9,2,4.4,4,7.5,6c3.1,2,6.9,3.9,11.4,5.5c4.4,1.7,9.7,3.1,15.7,4.2
				c6,1.1,13,1.8,20.8,2c0.8,0,1.5,0,2.3,0c7.1,0,13.9-0.9,20.1-2.7c7-2,13.3-5.1,18.8-9.2c5.5-4.1,10.2-9.3,13.9-15.4
				c3.7-6.1,6.3-13.2,7.9-21.1c1-5.5,1.8-11.9,2.4-18.8c0.6-6.9,0.9-14,1-21.1c0.1-3.1,0.1-6.7,0.2-10.8c0.1-4.2,0.1-8.7,0.1-13.4
				c0-4.9,0-10,0-15.2c0-5.7-0.1-11-0.1-16.2c-0.1-5.4-0.2-11-0.3-16.7c-0.1-5.9-0.3-11.3-0.5-16.5c-0.1-3.5-1.6-6.4-4.3-8.5
				c-2.2-1.7-5-3-8.2-3.7C394.1,191.3,391.3,191,388.5,191L388.5,191z M343.3,288.4c-4.3,0-8-0.7-11-2.2c-3.1-1.5-5.7-3.4-7.7-5.8
				c-2.1-2.4-3.7-5.2-4.7-8.3c-1.1-3.2-1.7-6.4-1.7-9.7c0-3.3,0.5-6.6,1.5-9.9c1-3.1,2.5-6,4.4-8.6c1.9-2.5,4.4-4.6,7.3-6.2
				c2.9-1.6,6.4-2.5,10.4-2.7c0.6,0,1.2,0,1.8,0c3.5,0,6.6,0.6,9.2,1.7c3.1,1.4,5.8,3.3,7.9,5.7c2.1,2.4,3.8,5.3,5,8.5
				c1.2,3.3,1.8,6.8,1.9,10.2c0.1,3.4-0.3,6.9-1.3,10.2c-1,3.3-2.5,6.2-4.5,8.7c-2,2.5-4.5,4.5-7.5,6
				C351.1,287.7,347.5,288.4,343.3,288.4L343.3,288.4z"/>
		</g>
	</g>
</g>
<g>
	<path d="M121.9,562.1c0.5,0,1,0.3,1.4,1c0.4,0.6,0.8,1.5,1,2.4c0.2,1,0.4,2,0.4,3.1c0,1.1-0.1,2.2-0.3,3.1c-0.2,1-0.6,1.8-1.1,2.4
		c-0.5,0.6-1.2,1-2.1,1l-9.8,0l0.2,51.5c0,0.5-0.3,1-1,1.4c-0.6,0.4-1.5,0.8-2.5,1c-1,0.2-2.1,0.4-3.2,0.4c-1.1,0-2.2-0.1-3.2-0.3
		c-1-0.2-1.8-0.6-2.5-1.1c-0.7-0.5-1-1.2-1-2.1c0-0.6,0-1.5,0-2.9c0-1.4,0-3,0-5c0-1.9,0-4.1,0-6.5s0-4.9,0-7.5c0-2.6,0-5.2,0-7.9
		c0-2.7,0-5.3,0-7.8c0-2.5,0-5,0-7.2c0-2.3,0-4.3,0-6.1L88.1,575c-0.5,0-0.9-0.3-1.2-1c-0.3-0.6-0.6-1.4-0.8-2.4
		c-0.2-0.9-0.3-2-0.3-3.1c0-1.1,0-2.1,0.2-3.1c0.1-0.9,0.4-1.7,0.7-2.4c0.3-0.6,0.7-0.9,1.3-0.9L121.9,562.1z"/>
	<path d="M135.1,577.5c-1.7,0-3.1-0.3-4.3-1c-1.1-0.7-2-1.6-2.6-2.6c-0.6-1-0.9-2.2-0.9-3.4c0-1.2,0.3-2.4,0.8-3.5
		c0.5-1.1,1.4-2,2.5-2.7c1.1-0.7,2.5-1.1,4.2-1.1c1.5,0,2.8,0.3,3.8,1c1,0.7,1.8,1.6,2.4,2.6c0.6,1,0.9,2.2,0.9,3.4
		c0,1.2-0.2,2.3-0.7,3.4c-0.5,1.1-1.2,1.9-2.3,2.7C138,577.1,136.6,577.4,135.1,577.5z M141.1,626.6c0,0.5-0.3,1-1,1.4
		c-0.7,0.4-1.5,0.8-2.5,1c-1,0.2-2,0.4-3.2,0.4c-1.1,0-2.2-0.1-3.2-0.3c-1-0.2-1.8-0.6-2.5-1.1c-0.7-0.5-1-1.2-1-2.1l0.5-44
		c0-0.5,0.3-0.9,1-1.2c0.6-0.3,1.4-0.6,2.4-0.8c0.9-0.2,1.9-0.3,3-0.3c1.1,0,2.1,0,3,0.1c0.9,0.1,1.7,0.3,2.3,0.7
		c0.6,0.3,0.9,0.7,0.9,1.2L141.1,626.6z"/>
	<path d="M158.6,582.6c0.4-0.2,0.8-0.4,1.2-0.6c0.4-0.2,0.8-0.3,1.2-0.5c5.2-2.1,9.7-2.6,13.6-1.6c3.9,1,7.1,3.7,9.7,8.1
		c1.4-1.6,2.8-3,4.4-4.1c1.5-1.2,3.1-2.1,4.7-2.8c1.6-0.7,3.2-1.2,4.9-1.5c1.6-0.2,3.2-0.3,4.8,0c2.3,0.3,4.3,1.2,6,2.4
		c1.7,1.3,3.2,2.9,4.4,4.8c1.2,1.9,2.1,4.2,2.8,6.7c0.7,2.6,1.1,5.3,1.3,8.2c0.2,3.6,0.4,7.3,0.4,11.2c0,3.9-0.1,8.2-0.3,12.9
		c0,0.7-0.4,1.3-1,1.8c-0.6,0.5-1.4,0.8-2.3,1c-0.9,0.2-1.9,0.3-3,0.3s-2.1-0.1-3-0.4c-0.9-0.3-1.7-0.6-2.2-1.1
		c-0.6-0.5-0.9-1-0.8-1.7c0.2-4.6,0.4-8.8,0.5-12.5c0.1-3.7,0.1-6.9-0.1-9.7c-0.1-1.3-0.3-2.7-0.6-4.1c-0.3-1.4-0.6-2.7-1.1-3.8
		c-0.5-1.1-1-2.1-1.7-2.8c-0.7-0.7-1.5-1.1-2.4-1.2c-1.8-0.1-3.3,0.2-4.6,0.8c-1.3,0.6-2.4,1.5-3.2,2.7c-0.9,1.2-1.6,2.6-2.2,4.2
		c-0.6,1.6-1,3.3-1.3,5.2c-0.3,1.8-0.5,3.7-0.7,5.7c-0.1,2-0.2,3.9-0.2,5.8c0,1.9,0,3.7,0,5.5c0,1.7,0,3.3,0,4.7
		c0,0.7-0.3,1.3-1,1.8c-0.6,0.5-1.4,0.8-2.3,1c-0.9,0.2-1.9,0.3-3,0.3s-2.1-0.1-3-0.4c-0.9-0.2-1.7-0.6-2.3-1.1
		c-0.6-0.5-0.9-1-0.9-1.7c0.2-4.6,0.4-8.8,0.5-12.5c0.1-3.7,0.1-6.9-0.1-9.7c-0.1-2.4-0.4-4.5-0.9-6.3c-0.4-1.8-1.1-3.2-2-4.2
		c-0.9-1-2.1-1.6-3.6-1.7c-1.5-0.1-3.3,0.2-5.6,1.1c-1.9,0.7-3.5,1.6-4.9,2.7l0.2,30.9c0,0.5-0.3,1-1,1.4c-0.6,0.4-1.5,0.8-2.5,1
		c-1,0.2-2.1,0.4-3.2,0.4c-1.1,0-2.2-0.1-3.2-0.3c-1-0.2-1.8-0.6-2.5-1.1c-0.7-0.5-1-1.2-1-2.1c0-1.1,0-2.5,0-4.3c0-1.8,0-3.7,0-5.9
		c0-2.2,0-4.5,0-6.9c0-2.4,0-4.9,0-7.3s0-4.8,0-7.2c0-2.3,0-4.5,0-6.4c0-1.9,0-3.6,0-5s0-2.4,0.1-3c0-0.5,0.3-0.9,1-1.2
		c0.6-0.3,1.4-0.6,2.4-0.8c0.9-0.2,1.9-0.3,3-0.4c1.1,0,2.1,0,3,0.1c0.9,0.1,1.7,0.3,2.3,0.7c0.6,0.3,0.9,0.7,0.9,1.2L158.6,582.6z"
		/>
	<path d="M260.2,611.6c0.3-0.4,0.9-0.6,1.6-0.5c0.7,0.1,1.5,0.3,2.3,0.7c0.8,0.4,1.7,0.9,2.5,1.5c0.8,0.6,1.5,1.3,2.1,1.9
		c0.6,0.7,1,1.3,1.2,2c0.2,0.6,0.1,1.2-0.3,1.7c-1.6,1.8-3.4,3.3-5.3,4.7s-3.9,2.4-5.9,3.2c-2,0.8-4.1,1.4-6.2,1.8
		c-2.1,0.3-4.2,0.5-6.2,0.3c-3.1-0.1-6-0.8-8.9-2c-2.8-1.2-5.3-2.9-7.4-5c-2.1-2.2-3.8-4.8-5-7.9c-1.2-3.1-1.8-6.6-1.7-10.6
		c0-2.1,0.3-4.2,0.8-6.3s1.2-4.1,2.2-6c1-1.9,2.1-3.7,3.5-5.3c1.4-1.7,3-3.1,4.9-4.3c1.9-1.2,4-2.2,6.3-2.9c2.3-0.7,4.9-1.1,7.7-1.1
		c3.6,0,6.7,0.5,9.3,1.8c2.6,1.2,4.8,2.9,6.6,5c1.8,2.1,3.2,4.5,4.2,7.2c1,2.7,1.7,5.5,2,8.3c0.1,0.9,0.1,1.9,0,2.9
		c-0.1,1-0.3,1.9-0.7,2.7c-0.3,0.8-0.8,1.5-1.3,2.1c-0.6,0.5-1.2,0.8-2,0.8c-1.1,0-2.4,0-3.9,0.1c-1.5,0-3.1,0-4.9,0
		c-1.8,0-3.6,0-5.6,0c-2,0-3.9,0-5.9-0.1c-2,0-3.9,0-5.8-0.1c-1.9,0-3.6,0-5.3-0.1c0.4,1.6,1,3.1,1.8,4.3s1.7,2.3,2.8,3.1
		c1,0.8,2.2,1.5,3.5,1.9c1.3,0.4,2.6,0.6,4,0.7c2.2,0,4.5-0.5,6.7-1.5C256.2,615.3,258.3,613.7,260.2,611.6z M246.7,589.5
		c-2.1,0.1-4,0.7-5.7,1.7c-1.7,1.1-3,2.4-4.1,4.1l20-0.1c-0.4-0.8-0.8-1.6-1.4-2.4c-0.6-0.7-1.3-1.4-2.1-1.9
		c-0.8-0.5-1.8-0.9-2.9-1.2C249.5,589.6,248.2,589.5,246.7,589.5z"/>
	<path d="M287.3,582.1c1-0.6,2.3-1.2,3.7-1.7c1.4-0.5,2.9-0.8,4.5-1c1.6-0.2,3.2-0.2,4.9-0.1c1.7,0.1,3.4,0.4,5,0.9
		c1.7,0.5,3.2,1.2,4.8,2.1s2.9,2,4.2,3.4c0.4,0.4,0.6,1,0.6,1.8c0,0.7-0.2,1.5-0.5,2.3c-0.3,0.8-0.7,1.6-1.2,2.4
		c-0.5,0.8-1,1.5-1.5,2c-0.5,0.6-1.1,1-1.6,1.2c-0.5,0.3-0.9,0.2-1.3-0.1c-1.3-1.1-2.7-1.9-4.1-2.5c-1.5-0.6-2.9-1-4.4-1.2
		c-1.5-0.2-2.9-0.2-4.3-0.1c-1.4,0.1-2.6,0.4-3.8,0.8c-1.1,0.4-2.1,0.9-3,1.6c-0.8,0.6-1.4,1.3-1.8,2.1l0.4,31c0,0.5-0.3,1-1,1.4
		c-0.6,0.4-1.5,0.8-2.5,1c-1,0.2-2.1,0.4-3.2,0.4c-1.1,0-2.2-0.1-3.2-0.3c-1-0.2-1.8-0.6-2.5-1.1c-0.7-0.5-1-1.2-1-2.1
		c0-1,0-2.3,0-4.1s0-3.6,0-5.8s0-4.5,0-7c0-2.5,0-5,0-7.5c0-2.5,0-5,0-7.4c0-2.4,0-4.7,0-6.7c0-2.1,0-3.9,0-5.4s0-2.7,0-3.4
		c0-0.5,0.3-0.9,0.9-1.2c0.6-0.3,1.4-0.6,2.3-0.8c0.9-0.2,1.9-0.3,3-0.3c1.1,0,2.1,0,3,0.1c0.9,0.1,1.7,0.3,2.3,0.7
		c0.6,0.3,0.9,0.7,0.9,1.2L287.3,582.1z"/>
	<path d="M349.4,589.6c0.1-3,0.2-5.6,0.5-7.7c0.3-2.1,0.6-3.9,1-5.3c0.4-1.5,0.8-2.7,1.3-3.7c0.5-1,1-1.9,1.6-2.7
		c1.2-1.8,2.6-3.2,4.1-4.3c1.5-1.1,3-1.9,4.4-2.4c1.4-0.5,2.8-0.9,4-1.1c1.2-0.2,2.1-0.3,2.8-0.3c1.3-0.1,2.6,0,4.1,0.2
		c1.4,0.2,2.8,0.6,4.1,1c1.3,0.4,2.5,1,3.6,1.6c1.1,0.6,1.9,1.3,2.4,2.1c0.4,0.6,0.7,1.3,0.7,2.2c0,0.9,0,1.7-0.3,2.6
		c-0.2,0.9-0.6,1.7-1,2.5s-1,1.5-1.6,2s-1.3,0.8-2,0.9c-0.7,0.1-1.4-0.1-2.2-0.6c-1.3-0.9-2.7-1.6-3.9-1.8c-1.3-0.3-2.4-0.4-3.4-0.2
		c-2.2,0.3-3.9,1.7-5.2,4.1c-0.6,1.3-1.1,2.9-1.5,4.7c-0.3,1.8-0.6,3.9-0.7,6.3h16.2c0.5,0,1,0.3,1.4,0.9c0.4,0.6,0.8,1.4,1,2.3
		c0.3,0.9,0.4,1.9,0.4,3c0,1.1,0,2.1-0.3,3c-0.2,0.9-0.6,1.7-1.1,2.3c-0.5,0.6-1.2,0.9-2.1,0.9l-15.5,0l0.3,24.8c0,0.5-0.3,1-1,1.4
		c-0.6,0.4-1.5,0.8-2.5,1c-1,0.2-2.1,0.4-3.2,0.4c-1.1,0-2.2-0.1-3.2-0.3c-1-0.2-1.8-0.6-2.5-1.1c-0.7-0.5-1-1.2-1-2.1l-0.1-24.1
		h-3.1c-0.5,0-0.9-0.3-1.2-0.9c-0.3-0.6-0.6-1.4-0.8-2.3s-0.3-1.9-0.4-3c-0.1-1.1,0-2.1,0.1-3c0.1-0.9,0.3-1.7,0.6-2.3
		c0.3-0.6,0.7-0.9,1.2-0.9H349.4z"/>
	<path d="M409.7,627.7c-3.2,0-6.1-0.4-8.6-1.3c-2.5-0.9-4.8-2.2-6.7-3.8s-3.5-3.5-4.7-5.6c-1.3-2.2-2.2-4.4-2.8-6.9
		s-0.9-4.9-0.9-7.5c0-2.6,0.3-5.1,1-7.5c0.6-2.4,1.6-4.7,2.9-6.9c1.3-2.2,2.8-4.1,4.7-5.7c1.9-1.6,4.1-2.9,6.6-3.8s5.3-1.4,8.4-1.4
		c3,0,5.6,0.5,8,1.4c2.4,0.9,4.4,2.2,6.2,3.8c1.8,1.6,3.2,3.5,4.4,5.6c1.2,2.1,2,4.4,2.6,6.8c0.6,2.4,0.9,4.9,0.9,7.4
		c0,2.6-0.3,5-0.9,7.5c-0.6,2.4-1.5,4.7-2.6,6.8c-1.2,2.1-2.6,4-4.4,5.6c-1.7,1.6-3.8,2.9-6.1,3.9
		C415.2,627.2,412.6,627.7,409.7,627.7z M408,590c-1.7,0.1-3.3,0.5-4.6,1.3c-1.3,0.8-2.4,1.8-3.2,3c-0.9,1.2-1.5,2.6-1.9,4.1
		c-0.4,1.5-0.6,3-0.6,4.6c0,1.6,0.3,3.1,0.7,4.6s1.2,2.8,2.1,4c0.9,1.2,2,2.1,3.4,2.8c1.4,0.7,3,1.1,4.8,1.1c1.8,0,3.4-0.4,4.8-1.1
		s2.5-1.7,3.4-2.9c0.9-1.2,1.5-2.6,2-4.1c0.4-1.5,0.6-3.1,0.6-4.7c-0.1-1.6-0.3-3.2-0.8-4.7c-0.5-1.5-1.2-2.9-2.2-4.1
		c-0.9-1.2-2.1-2.1-3.5-2.8C411.4,590.2,409.8,589.9,408,590z"/>
	<path d="M448.5,582.1c1-0.6,2.3-1.2,3.7-1.7s2.9-0.8,4.5-1c1.6-0.2,3.2-0.2,4.9-0.1c1.7,0.1,3.4,0.4,5,0.9c1.7,0.5,3.2,1.2,4.8,2.1
		c1.5,0.9,2.9,2,4.2,3.4c0.4,0.4,0.6,1,0.6,1.8c0,0.7-0.2,1.5-0.5,2.3c-0.3,0.8-0.7,1.6-1.2,2.4c-0.5,0.8-1,1.5-1.5,2
		c-0.5,0.6-1.1,1-1.6,1.2c-0.5,0.3-0.9,0.2-1.3-0.1c-1.3-1.1-2.7-1.9-4.1-2.5c-1.5-0.6-2.9-1-4.4-1.2c-1.5-0.2-2.9-0.2-4.3-0.1
		c-1.4,0.1-2.6,0.4-3.8,0.8c-1.1,0.4-2.1,0.9-3,1.6c-0.8,0.6-1.4,1.3-1.8,2.1l0.4,31c0,0.5-0.3,1-1,1.4c-0.6,0.4-1.5,0.8-2.5,1
		c-1,0.2-2.1,0.4-3.2,0.4c-1.1,0-2.2-0.1-3.2-0.3c-1-0.2-1.8-0.6-2.5-1.1c-0.7-0.5-1-1.2-1-2.1c0-1,0-2.3,0-4.1s0-3.6,0-5.8
		s0-4.5,0-7c0-2.5,0-5,0-7.5c0-2.5,0-5,0-7.4c0-2.4,0-4.7,0-6.7c0-2.1,0-3.9,0-5.4s0-2.7,0-3.4c0-0.5,0.3-0.9,0.9-1.2
		c0.6-0.3,1.4-0.6,2.3-0.8c0.9-0.2,1.9-0.3,3-0.3c1.1,0,2.1,0,3,0.1c0.9,0.1,1.7,0.3,2.3,0.7c0.6,0.3,0.9,0.7,0.9,1.2L448.5,582.1z"
		/>
	<path d="M542.3,611.6c0.3-0.4,0.9-0.6,1.6-0.5c0.7,0.1,1.5,0.3,2.3,0.7c0.8,0.4,1.7,0.9,2.5,1.5c0.8,0.6,1.5,1.3,2.1,1.9
		c0.6,0.7,1,1.3,1.2,2c0.2,0.6,0.1,1.2-0.3,1.7c-1.6,1.8-3.4,3.3-5.3,4.7s-3.9,2.4-5.9,3.2s-4.1,1.4-6.2,1.8
		c-2.1,0.3-4.2,0.5-6.2,0.3c-3.1-0.1-6-0.8-8.9-2c-2.8-1.2-5.3-2.9-7.4-5c-2.1-2.2-3.8-4.8-5-7.9c-1.2-3.1-1.8-6.6-1.7-10.6
		c0-2.1,0.3-4.2,0.8-6.3c0.5-2.1,1.2-4.1,2.2-6c1-1.9,2.1-3.7,3.5-5.3c1.4-1.7,3-3.1,4.9-4.3c1.9-1.2,4-2.2,6.3-2.9
		c2.3-0.7,4.9-1.1,7.7-1.1c3.6,0,6.7,0.5,9.3,1.8s4.8,2.9,6.6,5c1.8,2.1,3.2,4.5,4.2,7.2c1,2.7,1.7,5.5,2,8.3c0.1,0.9,0.1,1.9,0,2.9
		c-0.1,1-0.3,1.9-0.7,2.7c-0.3,0.8-0.8,1.5-1.3,2.1c-0.6,0.5-1.2,0.8-2,0.8c-1.1,0-2.4,0-3.9,0.1c-1.5,0-3.1,0-4.9,0
		c-1.8,0-3.6,0-5.6,0c-2,0-3.9,0-5.9-0.1c-2,0-3.9,0-5.8-0.1c-1.9,0-3.6,0-5.3-0.1c0.4,1.6,1,3.1,1.8,4.3c0.8,1.2,1.7,2.3,2.8,3.1
		c1,0.8,2.2,1.5,3.5,1.9c1.3,0.4,2.6,0.6,4,0.7c2.2,0,4.5-0.5,6.7-1.5C538.2,615.3,540.3,613.7,542.3,611.6z M528.8,589.5
		c-2.1,0.1-4,0.7-5.7,1.7c-1.7,1.1-3,2.4-4.1,4.1l20-0.1c-0.4-0.8-0.8-1.6-1.4-2.4c-0.6-0.7-1.3-1.4-2.1-1.9
		c-0.8-0.5-1.8-0.9-2.9-1.2C531.5,589.6,530.2,589.5,528.8,589.5z"/>
	<path d="M602.7,579.9c0.1,2,0.1,4.1,0.2,6.2c0,2.1,0.1,4.2,0.1,6.3c0,2.1,0,4.1,0.1,6.1c0,2,0,3.9,0,5.7c0,1.8,0,3.5,0,5
		c0,1.5,0,2.9-0.1,4.1c-0.1,2.7-0.2,5.3-0.4,7.9c-0.2,2.6-0.5,4.9-0.9,6.9c-0.5,2.8-1.5,5.3-2.8,7.5c-1.3,2.2-2.9,4-4.9,5.4
		c-1.9,1.4-4.1,2.5-6.6,3.2c-2.5,0.7-5.1,1-8,1c-2.9-0.1-5.4-0.3-7.6-0.7c-2.2-0.4-4.1-0.9-5.7-1.5c-1.6-0.6-2.9-1.2-4-1.9
		c-1.1-0.7-1.9-1.4-2.6-2.1c-0.6-0.6-1-1.4-1.2-2.4c-0.1-0.9-0.1-1.9,0.2-2.9c0.2-1,0.6-1.9,1.2-2.8c0.5-0.9,1.2-1.6,1.9-2.2
		c0.7-0.6,1.5-0.9,2.2-1c0.8-0.1,1.5,0.1,2.3,0.7c1.1,1,2.4,1.9,3.9,2.6c1.5,0.7,3.1,1.2,4.8,1.5c1.7,0.3,3.3,0.4,5,0.2
		c1.6-0.1,3.1-0.6,4.4-1.3c1.3-0.7,2.4-1.7,3.3-2.9c0.9-1.3,1.3-2.9,1.4-4.8c-1.3,0.6-2.6,1-4,1.3c-1.4,0.3-2.9,0.5-4.6,0.5
		c-3.2,0-6.1-0.4-8.6-1.3c-2.5-0.9-4.8-2.1-6.7-3.6c-1.9-1.5-3.5-3.3-4.7-5.4c-1.3-2.1-2.2-4.3-2.8-6.6s-0.9-4.7-0.9-7.2
		c0-2.5,0.3-4.8,1-7.2c0.6-2.3,1.6-4.5,2.9-6.6c1.3-2.1,2.8-3.9,4.7-5.4c1.9-1.6,4.1-2.8,6.6-3.7c2.5-0.9,5.3-1.3,8.4-1.3
		c1.8,0,3.5,0.2,5,0.5s3,0.9,4.3,1.5v-0.2c0-0.5,0.3-1,0.9-1.4c0.6-0.4,1.4-0.8,2.4-1c1-0.2,2-0.4,3.2-0.4c1.1,0,2.2,0.1,3.2,0.3
		c1,0.2,1.8,0.6,2.5,1.1C602.3,578.3,602.7,579,602.7,579.9z M578.6,590c-1.7,0.1-3.3,0.5-4.6,1.2c-1.3,0.7-2.4,1.6-3.2,2.7
		c-0.9,1.1-1.5,2.3-1.9,3.7c-0.4,1.4-0.6,2.8-0.6,4.2s0.3,2.8,0.7,4.2c0.5,1.4,1.2,2.6,2.1,3.6c0.9,1.1,2,1.9,3.4,2.6
		c1.4,0.6,3,1,4.8,1c1.8,0,3.4-0.3,4.8-1c1.4-0.7,2.5-1.6,3.4-2.7c0.9-1.1,1.5-2.4,2-3.8c0.4-1.4,0.6-2.9,0.6-4.3
		c-0.1-1.5-0.3-2.9-0.8-4.3c-0.5-1.4-1.2-2.6-2.2-3.7c-0.9-1.1-2.1-1.9-3.5-2.5C582.1,590.2,580.5,589.9,578.6,590z"/>
	<path d="M653.3,579.9c0.1,2,0.1,4.1,0.2,6.2c0,2.1,0.1,4.2,0.1,6.3c0,2.1,0,4.1,0.1,6.1c0,2,0,3.9,0,5.7c0,1.8,0,3.5,0,5
		c0,1.5,0,2.9-0.1,4.1c-0.1,2.7-0.2,5.3-0.4,7.9c-0.2,2.6-0.5,4.9-0.9,6.9c-0.5,2.8-1.5,5.3-2.8,7.5c-1.3,2.2-2.9,4-4.9,5.4
		c-1.9,1.4-4.1,2.5-6.6,3.2c-2.5,0.7-5.1,1-8,1c-2.9-0.1-5.4-0.3-7.6-0.7c-2.2-0.4-4.1-0.9-5.7-1.5c-1.6-0.6-2.9-1.2-4-1.9
		c-1.1-0.7-1.9-1.4-2.6-2.1c-0.6-0.6-1-1.4-1.2-2.4c-0.1-0.9-0.1-1.9,0.2-2.9c0.2-1,0.6-1.9,1.2-2.8c0.5-0.9,1.2-1.6,1.9-2.2
		c0.7-0.6,1.5-0.9,2.2-1c0.8-0.1,1.5,0.1,2.3,0.7c1.1,1,2.4,1.9,3.9,2.6c1.5,0.7,3.1,1.2,4.8,1.5c1.7,0.3,3.3,0.4,5,0.2
		c1.6-0.1,3.1-0.6,4.4-1.3c1.3-0.7,2.4-1.7,3.3-2.9c0.9-1.3,1.3-2.9,1.4-4.8c-1.3,0.6-2.6,1-4,1.3c-1.4,0.3-2.9,0.5-4.6,0.5
		c-3.2,0-6.1-0.4-8.6-1.3c-2.5-0.9-4.8-2.1-6.7-3.6c-1.9-1.5-3.5-3.3-4.7-5.4c-1.3-2.1-2.2-4.3-2.8-6.6s-0.9-4.7-0.9-7.2
		c0-2.5,0.3-4.8,1-7.2c0.6-2.3,1.6-4.5,2.9-6.6c1.3-2.1,2.8-3.9,4.7-5.4c1.9-1.6,4.1-2.8,6.6-3.7c2.5-0.9,5.3-1.3,8.4-1.3
		c1.8,0,3.5,0.2,5,0.5c1.5,0.4,3,0.9,4.3,1.5v-0.2c0-0.5,0.3-1,0.9-1.4c0.6-0.4,1.4-0.8,2.4-1c1-0.2,2-0.4,3.2-0.4
		c1.1,0,2.2,0.1,3.2,0.3c1,0.2,1.8,0.6,2.5,1.1C653,578.3,653.3,579,653.3,579.9z M629.3,590c-1.7,0.1-3.3,0.5-4.6,1.2
		c-1.3,0.7-2.4,1.6-3.2,2.7c-0.9,1.1-1.5,2.3-1.9,3.7c-0.4,1.4-0.6,2.8-0.6,4.2c0,1.4,0.3,2.8,0.7,4.2c0.5,1.4,1.2,2.6,2.1,3.6
		c0.9,1.1,2,1.9,3.4,2.6c1.4,0.6,3,1,4.8,1c1.8,0,3.4-0.3,4.8-1c1.4-0.7,2.5-1.6,3.4-2.7c0.9-1.1,1.5-2.4,2-3.8
		c0.4-1.4,0.6-2.9,0.6-4.3c-0.1-1.5-0.3-2.9-0.8-4.3c-0.5-1.4-1.2-2.6-2.2-3.7c-0.9-1.1-2.1-1.9-3.5-2.5
		C632.8,590.2,631.1,589.9,629.3,590z"/>
	<path d="M695,616c0,2.3-0.4,4.3-1.3,6c-0.8,1.7-2,3.1-3.4,4.2s-3,1.9-4.9,2.5c-1.9,0.5-3.8,0.9-5.9,0.9c-2.1,0.1-4.2-0.1-6.3-0.5
		c-2.1-0.4-4.2-1-6.1-1.8c-2-0.8-3.8-1.8-5.4-3c-1.7-1.2-3-2.5-4.1-4c-0.3-0.4-0.4-1-0.3-1.7c0.1-0.7,0.4-1.4,0.8-2.2
		c0.4-0.8,0.9-1.6,1.5-2.3c0.6-0.7,1.2-1.4,1.8-1.9c0.6-0.5,1.2-0.9,1.8-1.1c0.6-0.2,1-0.1,1.4,0.2c0.8,0.9,1.8,1.7,2.9,2.4
		c1.1,0.7,2.2,1.4,3.3,1.9c1.1,0.5,2.2,0.9,3.3,1.2c1.1,0.3,2.1,0.4,3,0.3c0.9,0,1.7-0.3,2.4-0.7c0.6-0.4,1.1-1.1,1.3-1.9
		c0.2-0.8-0.1-1.6-0.9-2.4c-0.8-0.8-1.8-1.7-3.2-2.6c-1.4-0.9-2.9-1.9-4.7-2.9c-1.7-1-3.5-2.1-5.2-3.3c-1.7-1.2-3.3-2.4-4.8-3.8
		s-2.7-2.8-3.5-4.4c-0.8-1.5-1.3-3.1-1.3-4.7c-0.1-1.6,0.2-3.1,0.7-4.6c0.6-1.5,1.4-2.9,2.5-4.1c1.1-1.3,2.4-2.4,3.8-3.3
		c1.5-0.9,3.1-1.6,4.9-2c1.8-0.4,3.6-0.6,5.5-0.4c1.8,0.2,3.6,0.5,5.5,1c1.8,0.5,3.6,1.1,5.2,1.9c1.7,0.8,3.2,1.7,4.6,2.8
		c1.4,1.1,2.5,2.3,3.4,3.7c0.3,0.5,0.5,1.2,0.3,1.9c-0.1,0.7-0.4,1.4-0.8,2.2c-0.4,0.7-0.9,1.4-1.6,2.1c-0.6,0.7-1.3,1.3-1.9,1.7
		c-0.6,0.5-1.3,0.8-1.9,1c-0.6,0.2-1.1,0.1-1.4-0.1c-1.2-1-2.6-1.9-4-2.8c-1.4-0.9-2.8-1.6-4.1-2.1c-1.3-0.5-2.5-0.7-3.6-0.7
		c-1.1,0-1.8,0.4-2.3,1.3c-0.3,0.5-0.3,0.9-0.1,1.4c0.2,0.5,0.4,0.9,0.9,1.3c0.4,0.4,0.9,0.9,1.5,1.3c0.6,0.4,1.2,0.8,1.8,1.1
		c0.6,0.3,1.2,0.7,1.8,1c0.6,0.3,1.1,0.5,1.5,0.7c2.1,0.8,4.1,1.9,5.9,3.1c1.9,1.3,3.5,2.7,4.9,4.4c1.4,1.6,2.5,3.5,3.3,5.5
		C694.6,611.6,695,613.7,695,616z"/>
</g>
</svg>
