<?xml version="1.0" encoding="UTF-8"?>
<svg id="Layer_1" data-name="Layer 1" xmlns="http://www.w3.org/2000/svg" viewBox="0 0 735.33 720.71">
  <g>
    <path d="M443.43,715.71c-4.29,0-8.84-.68-13.52-2.01-8.77-2.5-16.94-6.83-22.31-9.88-10.18-5.76-13.09-13.12-10.05-25.4,1.8-7.3,3.77-14.67,5.67-21.8,1.12-4.19,2.24-8.38,3.33-12.58,.44-1.7,.86-3.45,1.3-5.36-13.9,1.29-27.27,1.92-40.69,1.92s-26.48-.63-39.77-1.91c.14,.68,.28,1.31,.43,1.92,1.25,4.9,2.53,9.8,3.8,14.69,1.89,7.27,3.85,14.78,5.69,22.21,3.38,13.65,.67,20.11-11.62,27.65-11.24,6.9-21.72,10.25-32.04,10.25-1.86,0-3.75-.11-5.61-.33-4.14-.48-10.24-1.73-15.78-4.9-7.59-4.35-12.15-11.42-12.5-19.38-.35-7.97,3.56-15.41,10.73-20.42,4.41-3.08,9.44-4.85,14.62-6.54,2.63-.86,5.27-1.29,8.04-1.69-.46-1.73-.92-3.45-1.37-5.17-2.47-9.31-4.81-18.1-7.09-27.13-.01-.05-.03-.09-.04-.12-.31-.17-1.09-.41-1.62-.57-.61-.19-1.23-.38-1.82-.6-4.28-1.6-8.72-3.13-13.02-4.6-8.96-3.08-18.23-6.26-27-10.46-66.72-31.9-111.11-84.81-131.95-157.26-.57-2-1.02-3.67-1.39-5.07-.43-1.62-.87-3.28-1.18-4.05-.65-.18-1.92-.4-3.06-.6-1.6-.28-3.58-.63-6.11-1.18-8.46-1.84-16.88-3.42-25.79-5.09-2.7-.51-5.42-1.02-8.17-1.54-1.17,2.67-2.38,5.42-3.62,8.11-.54,1.17-1.06,2.36-1.57,3.55-1.48,3.4-3.01,6.92-5.09,10.25-3.29,5.28-8.58,8.31-14.52,8.31-2.28,0-4.54-.45-6.72-1.35-8.18-3.37-12.53-11.82-10.57-20.54,.29-1.29,.65-2.54,1.05-3.8-9.08-.48-15.28-5.3-17.06-13.29-1.81-8.15,2.03-15.96,9.79-19.87,2.89-1.46,5.84-2.58,8.95-3.72-.33-.52-.65-1.04-.98-1.55-.27-.42-.54-.84-.82-1.26-.53-.8-1.08-1.63-1.6-2.54-6.2-10.63-4.67-20.84,3.99-26.63,3.05-2.04,6.27-3.07,9.56-3.07,4.23,0,10.51,1.74,16.41,10.03,1.32,1.85,2.62,3.71,3.91,5.57,2.92,4.18,5.93,8.5,9.07,12.54,1.4,1.8,2.98,2.96,3.76,3.14,8.98,2.03,18.03,3.76,27.62,5.6,1.39,.27,2.78,.53,4.19,.8-.32-4.21-.63-8.18-1-12.08-2.35-24.57-2.39-49.74-.12-76.96,3.8-45.48,15.47-90.45,35.68-137.48,19.33-44.98,43.07-80.66,72.57-109.07,27.83-26.8,55.58-44.69,84.83-54.72,26.86-9.21,51.17-13.68,74.33-13.68,2.13,0,4.28,.04,6.39,.11,51.13,1.83,96.7,18.52,135.45,49.59,37.41,30,66.45,68.08,88.78,116.43,17.17,37.17,29.34,75.49,36.19,113.9,6.39,35.89,8.04,71.43,4.9,105.62-.47,5.15-.91,10.31-1.4,16.01-.06,.75-.13,1.5-.19,2.27,1.49-.28,2.97-.56,4.44-.83,9.56-1.79,18.59-3.48,27.48-5.53,.59-.13,2.16-1.11,4.34-3.91,4.52-5.81,8.76-12.04,12.85-18.06,5.13-7.55,11.41-9.13,15.78-9.13,.62,0,1.26,.03,1.9,.09,5.79,.57,10.7,3.74,13.47,8.69,2.9,5.19,2.99,11.69,.22,17.38-1.46,3.01-3.25,5.8-5.15,8.71,.88,.33,1.76,.69,2.64,1.11,.51,.24,1.02,.48,1.53,.72,3,1.4,6.4,2.98,9.25,5.43,5.56,4.79,7.32,11.59,4.71,18.2-2.82,7.12-8.34,11.18-15.56,11.44-.35,.01-.69,.02-1.04,.03,.24,.84,.47,1.68,.68,2.51,2.46,9.52-1.36,18.03-9.73,21.67-2.25,.98-4.6,1.48-6.99,1.48-6.42,0-12.25-3.63-15.59-9.7-2.22-4.03-4.01-8.22-5.75-12.29-.77-1.8-1.54-3.59-2.34-5.37-.42-.92-.84-1.84-1.27-2.78-2.95,.56-5.89,1.13-8.82,1.69-11.23,2.16-21.83,4.19-32.7,6.14-1.23,.22-1.49,.27-2.59,3.57-1.13,3.39-2.23,6.79-3.33,10.2-3.75,11.65-7.63,23.69-12.85,35.05-25.18,54.88-66.15,95.31-121.77,120.16-10.1,4.51-21.19,8.55-33.91,12.33-4.34,1.29-5.78,2.84-6.69,7.19-1.6,7.62-3.61,14.93-5.73,22.66-.4,1.46-.8,2.93-1.21,4.41,2.54,.46,4.97,.9,7.38,1.42,8.37,1.81,14.48,5.02,19.23,10.1,4.87,5.21,7.23,11.67,6.66,18.19-.57,6.44-3.97,12.29-9.57,16.48-6.5,4.87-13.99,7.33-22.25,7.33ZM136.76,317.67c-.94,7.31-1.83,14.21-1.9,20.86-.15,15.3,.56,30.93,1.25,46.05l.17,3.72c.79,17.53,3.92,35.74,9.86,57.32,12.17,44.23,36.4,81.06,72.02,109.47,18.57,14.8,40.49,26.18,67.01,34.79,15.02,4.87,31.61,8.5,53.79,11.76,10.3,1.51,20.42,2.28,30.06,2.28,7.35,0,14.67-.45,21.74-1.32,24.65-3.06,46.23-8,65.98-15.1,37.94-13.64,68.01-34.34,91.94-63.28,19.98-24.16,33.71-51.87,41.98-84.7,3.42-13.58,5.48-27.66,7.29-40.93,1.04-7.6,1.58-15.49,2.11-23.11,.27-3.86,.54-7.85,.88-11.79,.13-1.56-.21-2.67-2.46-4.46-4.18-3.33-8.35-6.78-12.38-10.12-4.46-3.69-9.06-7.51-13.66-11.13-6.62-5.22-13.31-10.27-20.38-15.6-1.74-1.32-3.5-2.64-5.28-3.99-2.35,3.66-4.68,7.32-7.02,10.99-5.62,8.81-11.43,17.92-17.3,26.81-.78,1.18-1.55,2.36-2.33,3.55-4.45,6.81-9.06,13.86-14.6,20.13-4.44,5.03-8.98,7.47-13.88,7.47-4.52,0-8.42-2.08-11.63-4.12-2.6-1.65-5.26-3.5-8.12-5.65-5.78-4.34-11.54-8.7-17.31-13.06-8.99-6.8-18.29-13.82-27.48-20.67-2.67-1.99-6-4.47-6.93-4.54-.87,.09-3.82,2.41-6.67,4.65-6.25,4.91-12.45,9.79-18.64,14.68-12.12,9.55-24.65,19.42-37.01,29.08-4.69,3.66-9.11,5.44-13.51,5.44-4.87,0-9.57-2.17-14.38-6.64-4.09-3.8-8.16-7.63-12.22-11.46-5.48-5.17-11.16-10.51-16.79-15.67-4.14-3.79-8.34-7.41-12.79-11.23-1.08-.93-2.17-1.87-3.27-2.81-1.24,.76-2.42,1.5-3.54,2.25-5.67,3.84-11.32,7.69-16.98,11.54-10.12,6.89-20.59,14.02-30.94,20.95-5.48,3.67-10.21,5.38-14.89,5.38-5.47,0-10.62-2.3-16.21-7.24-7.6-6.71-15.01-13.8-22.18-20.66-2.11-2.02-4.22-4.03-6.33-6.04-9.86-9.37-19.69-18.77-30.08-28.7l-6.8-6.5c-.06,.45-.11,.89-.17,1.33Zm149.9-13.47c6.67,0,11.97,4.08,16.27,8.08,3.29,3.05,6.57,6.11,9.86,9.17,5.69,5.31,11.58,10.79,17.4,16.15,4.03,3.71,8.08,7.33,12.37,11.18,.95,.85,1.91,1.71,2.88,2.58,1.63-1.27,3.26-2.53,4.87-3.78,5.85-4.53,11.58-8.98,17.3-13.45,4.49-3.51,8.96-7.05,13.44-10.58,8.74-6.91,17.79-14.05,26.82-20.93,4.36-3.32,8.48-4.93,12.6-4.93s8.11,1.58,12.38,4.82c20.54,15.6,37.42,28.38,53.11,40.19,.42,.31,.89,.61,1.42,.92l.9-1.38c2.33-3.57,4.55-6.98,6.75-10.41,3.43-5.35,6.86-10.71,10.28-16.07,6.11-9.55,12.42-19.43,18.69-29.12,5-7.73,10.99-11.64,17.8-11.64,4.73,0,9.57,1.86,14.79,5.69l1.77,1.3c6.99,5.12,14.21,10.42,21.24,15.75,5.95,4.51,11.91,9.14,18.22,14.04l-.42-4.1c-.08-.79-.15-1.54-.25-2.24-5.9-38.91-16.93-76.62-32.76-112.09-18.65-41.77-41.49-74.32-69.84-99.52-19.08-16.96-36.51-28.34-54.84-35.81-23.48-9.56-47.3-14.41-70.82-14.41-4.35,0-8.77,.17-13.13,.49-29.97,2.25-55.38,9.63-77.69,22.56-29.77,17.26-55.25,40.95-75.74,70.43-25.73,37.02-44.62,80.64-57.73,133.35-.54,2.19-.4,2.96,2.3,5.51,16.16,15.28,32.54,30.86,48.39,45.93,8.14,7.74,16.29,15.48,24.43,23.22,.1,.1,.22,.2,.33,.3,1.49-.95,2.91-1.86,4.29-2.8,6.3-4.31,12.58-8.63,18.87-12.96,9.64-6.63,19.29-13.25,28.95-19.85,5.64-3.85,10.11-5.56,14.5-5.56Z" style="fill: #e8754d;"/>
    <path d="M365.6,10c2.07,0,4.13,.04,6.21,.11,49.39,1.77,93.74,17.41,132.5,48.49,38.65,31,66.73,69.95,87.37,114.63,16.66,36.06,28.83,73.55,35.8,112.68,6.15,34.54,8.06,69.3,4.85,104.29-.71,7.69-1.33,15.38-2.15,24.88,13.8-2.66,26.27-4.8,38.58-7.63,2.71-.62,5.31-3.33,7.16-5.71,4.6-5.91,8.83-12.12,13.04-18.33,2.91-4.28,6.7-6.94,11.64-6.94,.46,0,.93,.02,1.41,.07,9.04,.89,13.88,10.28,9.68,18.91-2.12,4.36-5.06,8.33-8.3,13.56,3.06,1.09,5.71,1.8,8.14,2.96,3.34,1.59,6.92,3.06,9.66,5.43,3.72,3.2,5.22,7.76,3.32,12.57-1.93,4.87-5.5,8.08-11.09,8.28-.85,.03-1.7,.04-2.58,.04-1.48,0-3.07-.03-4.95-.03,.97,3.38,1.81,6.06,2.51,8.78,1.87,7.23-.74,13.16-6.88,15.83-1.63,.71-3.33,1.06-5,1.06-4.4,0-8.64-2.44-11.21-7.11-3.05-5.54-5.3-11.52-7.91-17.3-.93-2.05-1.89-4.09-2.93-6.36-15.37,2.92-30.31,5.86-45.31,8.56-4.15,.75-5.24,3.29-6.44,6.9-5.01,15.03-9.4,30.41-15.98,44.75-24.84,54.14-64.87,93.38-119.26,117.68-10.76,4.81-21.99,8.74-33.29,12.1-6.12,1.82-8.87,4.84-10.16,10.95-2.24,10.64-5.39,21.09-8.28,32.06,4.73,.88,8.67,1.51,12.56,2.35,6.31,1.37,12.1,3.77,16.63,8.63,7.93,8.48,7.07,20.27-2.25,27.24-6,4.49-12.54,6.34-19.26,6.34-4.02,0-8.09-.66-12.15-1.82-7.38-2.1-14.5-5.62-21.22-9.42-8.32-4.71-10.1-10-7.66-19.85,2.84-11.48,6.01-22.87,8.99-34.32,.93-3.57,1.7-7.18,2.9-12.29-15.89,1.7-31.51,2.59-47.12,2.59s-30.45-.84-45.92-2.58c.76,3.93,1.12,6.41,1.74,8.83,3.13,12.3,6.43,24.55,9.49,36.87,2.89,11.67,1.06,15.78-9.38,22.19-9.14,5.61-18.84,9.51-29.42,9.51-1.65,0-3.33-.1-5.03-.29-4.75-.55-9.76-1.91-13.87-4.27-12.76-7.32-13.43-22.96-1.39-31.36,3.91-2.73,8.71-4.39,13.31-5.88,3.77-1.23,7.85-1.49,12.75-2.35-3.37-12.75-6.72-25.16-9.88-37.63-.92-3.65-4-3.78-6.57-4.74-13.22-4.95-26.94-8.82-39.62-14.89-66.35-31.72-109.02-83.62-129.3-154.13-4.23-14.72-1.27-11.32-15.49-14.4-12.36-2.68-24.84-4.86-37.99-7.41-1.75,3.95-3.43,7.84-5.19,11.69-2.05,4.45-3.79,9.11-6.36,13.24-2.46,3.95-6.28,5.95-10.27,5.95-1.6,0-3.23-.32-4.82-.98-5.9-2.43-9.05-8.37-7.59-14.82,.68-3.05,1.85-5.98,3.09-9.86-1.59,0-2.93,.02-4.17,.02-.73,0-1.43,0-2.13-.03-7.04-.26-11.49-3.55-12.79-9.39-1.28-5.76,1.24-11.33,7.16-14.32,4.29-2.16,8.94-3.6,14.19-5.65-1.6-2.55-2.92-4.66-4.25-6.76-.77-1.22-1.61-2.4-2.33-3.65-4.83-8.28-3.91-15.7,2.45-19.96,2.23-1.49,4.51-2.23,6.78-2.23,4.33,0,8.61,2.69,12.34,7.93,4.35,6.11,8.51,12.37,13.11,18.28,1.65,2.12,4.13,4.38,6.6,4.94,12.33,2.78,24.79,5.02,38.41,7.69-.56-6.97-.95-12.85-1.52-18.71-2.43-25.35-2.23-50.7-.11-76.06,3.96-47.34,16.6-92.43,35.29-135.92,17.25-40.15,39.77-76.94,71.45-107.44,24.11-23.22,50.97-42.62,82.99-53.59,23.56-8.08,47.74-13.41,72.7-13.41M219.77,351.48c2.62-1.69,5.05-3.19,7.4-4.8,15.95-10.92,31.85-21.91,47.82-32.8,4.56-3.11,8.21-4.69,11.68-4.69,4.12,0,8,2.22,12.87,6.74,9.09,8.44,18.14,16.93,27.27,25.33,5.91,5.44,11.93,10.76,18.41,16.59,8.73-6.78,17.13-13.26,25.49-19.8,13.4-10.49,26.67-21.16,40.2-31.48,3.48-2.65,6.56-3.91,9.57-3.91s6.07,1.31,9.35,3.8c17.68,13.43,35.39,26.84,53.13,40.2,1.75,1.31,3.8,2.21,6.1,3.52,3.61-5.56,6.92-10.61,10.18-15.68,9.66-15.05,19.24-30.15,28.97-45.17,4.05-6.26,8.54-9.36,13.61-9.36,3.62,0,7.55,1.58,11.83,4.72,7.68,5.63,15.36,11.25,22.94,17,8.68,6.58,17.24,13.3,27.43,21.18-.65-6.24-1.09-10.5-1.54-14.77-.12-1.15-.21-2.3-.38-3.44-5.96-39.28-16.94-77.09-33.14-113.38-17.13-38.36-39.45-73.09-71.09-101.22-16.9-15.03-35.23-28.13-56.28-36.7-23.41-9.53-47.64-14.78-72.7-14.78-4.47,0-8.97,.17-13.5,.51-28.24,2.12-55.13,8.91-79.82,23.22-31.23,18.1-56.8,42.35-77.34,71.9-28.54,41.05-46.47,86.73-58.48,134.99-1.22,4.89,.62,7.43,3.71,10.35,24.31,23,48.55,46.09,72.82,69.14,1.01,.96,2.18,1.75,3.49,2.79m149.25,257.44c7.46,0,14.91-.44,22.35-1.36,22.81-2.83,45.29-7.53,67.05-15.36,37.1-13.34,68.76-34.15,94.1-64.8,21.22-25.66,34.94-54.76,42.98-86.66,3.42-13.59,5.49-27.57,7.39-41.47,1.59-11.64,2.01-23.43,3.02-35.15,.33-3.87-1.37-6.45-4.33-8.8-8.77-6.98-17.25-14.33-26.05-21.27-9.63-7.59-19.48-14.88-29.98-22.87-1.22,1.82-1.88,2.77-2.5,3.74-8.24,12.84-16.36,25.77-24.77,38.5-5.22,7.91-10.27,16.06-16.51,23.13-3.68,4.17-6.94,5.78-10.13,5.78-2.94,0-5.82-1.36-8.94-3.34-2.67-1.7-5.27-3.53-7.8-5.43-14.95-11.23-29.81-22.57-44.8-33.74-4.95-3.69-7.46-5.53-9.91-5.53-2.5,0-4.93,1.92-9.81,5.75-18.53,14.57-37.02,29.2-55.6,43.71-3.74,2.92-7.13,4.38-10.44,4.38-3.64,0-7.18-1.77-10.98-5.3-9.71-9.02-19.27-18.19-29.04-27.15-6.1-5.59-12.46-10.9-18.93-16.54-2.51,1.57-4.72,2.86-6.84,4.3-15.97,10.82-31.87,21.75-47.9,32.48-4.43,2.97-8.32,4.53-12.11,4.53-4.21,0-8.3-1.93-12.9-5.99-9.71-8.58-18.98-17.65-28.38-26.58-14.18-13.47-28.3-27-44.1-42.09-1.3,12.2-3.2,22.43-3.3,32.67-.16,16.67,.67,33.37,1.42,50.03,.89,19.87,4.75,39.21,10.03,58.43,12.49,45.42,36.96,82.74,73.72,112.05,20.52,16.36,43.8,27.6,68.59,35.64,17.76,5.76,36.06,9.23,54.6,11.96,10.3,1.51,20.55,2.34,30.79,2.34M365.61,0V0c-23.72,0-48.56,4.56-75.95,13.95-29.96,10.27-58.31,28.54-86.68,55.85-30,28.88-54.1,65.09-73.7,110.7-20.42,47.53-32.22,93.01-36.07,139.03-2.3,27.51-2.26,52.98,.12,77.85,.17,1.79,.33,3.6,.48,5.45-8.54-1.64-16.68-3.22-24.71-5.02-.3-.23-.85-.72-1.42-1.44-3.06-3.93-5.9-8.01-8.91-12.32-1.31-1.88-2.62-3.75-3.95-5.62-7.14-10.02-15.08-12.13-20.48-12.13-4.31,0-8.46,1.32-12.34,3.92-10.9,7.3-13.07,20.37-5.53,33.31,.08,.13,.15,.26,.23,.38-1.24,.52-2.47,1.08-3.7,1.71-9.87,4.98-14.74,14.96-12.41,25.42,1.85,8.31,7.56,14.1,15.74,16.28-1.77,10.65,3.76,20.75,13.81,24.89,2.79,1.15,5.69,1.73,8.63,1.73,7.59,0,14.6-3.99,18.76-10.66,2.27-3.64,3.87-7.32,5.43-10.89,.53-1.21,1.02-2.35,1.53-3.46,.69-1.51,1.38-3.04,2.05-4.55,1.43,.27,2.86,.54,4.28,.8,8.88,1.67,17.26,3.24,25.65,5.06,2.63,.57,4.67,.93,6.31,1.22,.09,.34,.18,.68,.27,1.02,.37,1.39,.83,3.11,1.42,5.16,10.53,36.63,27.12,68.68,49.31,95.26,22.45,26.89,51.14,48.81,85.29,65.13,9.03,4.32,18.43,7.55,27.53,10.67,4.26,1.46,8.67,2.98,12.89,4.56,.36,.13,.7,.25,1.03,.36,2.1,8.21,4.3,16.51,6.44,24.57-1.11,.25-2.23,.55-3.36,.91-5.34,1.74-10.97,3.73-15.94,7.19-8.48,5.92-13.29,15.17-12.87,24.74,.43,9.57,6.04,18.35,15.01,23.5,6.27,3.59,13.07,4.99,17.68,5.53,2.05,.24,4.13,.36,6.19,.36,11.27,0,22.61-3.59,34.65-10.99,5.49-3.37,10.95-7.36,13.65-13.72,2.78-6.52,1.74-13.17,.2-19.39-1.85-7.46-3.81-14.98-5.71-22.26-.84-3.21-1.69-6.49-2.54-9.76,11.06,.88,22.03,1.32,33.24,1.32s22.59-.44,34.17-1.34c-.97,3.7-1.96,7.43-2.93,11.06-1.91,7.15-3.88,14.55-5.7,21.9-2.23,9-3.36,22.01,12.44,30.95,5.6,3.17,14.12,7.69,23.41,10.33,5.13,1.46,10.13,2.2,14.89,2.2,9.36,0,17.86-2.8,25.25-8.33,6.75-5.05,10.86-12.17,11.55-20.04,.7-7.95-2.13-15.78-7.99-22.04-5.4-5.78-12.54-9.56-21.82-11.57-.73-.16-1.46-.31-2.19-.45,1.98-7.21,4-14.65,5.57-22.12,.51-2.43,.55-2.63,3.22-3.43,12.93-3.85,24.22-7.96,34.52-12.56,56.76-25.36,98.57-66.62,124.27-122.64,5.34-11.64,9.27-23.82,13.07-35.61,1.08-3.34,2.19-6.79,3.31-10.15,.06-.18,.11-.34,.16-.48,10.44-1.89,20.62-3.84,31.37-5.91,1.64-.31,3.27-.63,4.92-.94,.65,1.45,1.27,2.92,1.93,4.46,1.79,4.17,3.63,8.49,5.97,12.73,4.24,7.7,11.7,12.29,19.97,12.29,3.08,0,6.1-.64,8.98-1.89,9.84-4.28,14.81-13.69,13.19-24.49,6.85-1.74,12.23-6.62,15.11-13.9,3.38-8.55,1.05-17.68-6.09-23.83-3.02-2.6-6.34-4.27-9.37-5.7,.83-1.39,1.61-2.81,2.34-4.3,3.48-7.16,3.35-15.39-.35-22.01-3.58-6.4-9.9-10.5-17.34-11.23-.8-.08-1.6-.12-2.39-.12-5.58,0-13.56,1.96-19.91,11.32-4.05,5.96-8.23,12.12-12.66,17.8-1.05,1.35-1.77,1.99-2.09,2.24-7.98,1.82-16.12,3.37-24.68,4.97,.35-4.09,.68-7.86,1.03-11.69,3.18-34.64,1.51-70.62-4.96-106.96-6.92-38.83-19.22-77.56-36.57-115.12-22.67-49.07-52.17-87.74-90.19-118.24C470.96,19.04,424.4,1.99,372.16,.12c-2.17-.08-4.38-.12-6.56-.12h0ZM149.49,271.46c12.96-52.04,31.59-95.06,56.94-131.54,20.07-28.86,45.01-52.06,74.14-68.95,21.64-12.55,46.36-19.71,75.55-21.9,4.24-.32,8.53-.48,12.75-.48,22.86,0,46.05,4.72,68.93,14.04,17.79,7.25,34.76,18.34,53.41,34.91,27.81,24.72,50.25,56.72,68.6,97.83,14.86,33.29,25.44,68.58,31.46,105-2.91-2.25-5.78-4.45-8.66-6.63-7.08-5.37-14.33-10.68-21.35-15.83l-1.73-1.27c-6.11-4.48-11.92-6.66-17.75-6.66-8.62,0-16.02,4.69-22,13.93-6.28,9.7-12.6,19.58-18.71,29.14-3.42,5.36-6.85,10.71-10.28,16.06-1.57,2.44-3.14,4.87-4.77,7.37-14.87-11.21-30.91-23.35-50.17-37.98-5.17-3.93-10.21-5.84-15.4-5.84s-10.37,1.95-15.63,5.96c-9.06,6.9-18.11,14.05-26.87,20.97-4.4,3.48-8.96,7.08-13.44,10.59-5.73,4.49-11.38,8.87-17.37,13.51-.5,.38-.99,.77-1.49,1.16-4.2-3.76-8.17-7.31-12.1-10.93-5.8-5.34-11.68-10.82-17.37-16.12-3.29-3.06-6.57-6.13-9.87-9.18-4.72-4.38-11.22-9.41-19.67-9.41-6.99,0-12.93,3.44-17.32,6.43-9.68,6.6-19.49,13.34-28.97,19.86-6.29,4.32-12.57,8.64-18.86,12.95-.29,.2-.59,.4-.88,.6-7.3-6.93-14.6-13.87-21.9-20.81-15.85-15.07-32.24-30.65-48.4-45.94-.38-.36-.65-.63-.84-.84h0Zm342.15,120.89c6.42,0,12.18-3,17.63-9.16,5.78-6.55,10.49-13.74,15.04-20.7,.77-1.18,1.54-2.36,2.32-3.53,5.9-8.93,11.73-18.07,17.36-26.91,1.36-2.13,2.72-4.27,4.08-6.4,.33,.25,.66,.5,.99,.75,7.05,5.32,13.71,10.34,20.28,15.53,4.55,3.58,9.13,7.38,13.56,11.05,4.05,3.35,8.23,6.82,12.45,10.18,.25,.2,.43,.36,.56,.48-.33,3.86-.6,7.75-.85,11.52-.54,7.89-1.06,15.34-2.07,22.78-1.8,13.13-3.83,27.07-7.18,40.39-8.08,32.09-21.49,59.16-40.99,82.73-23.34,28.23-52.71,48.43-89.78,61.76-19.39,6.97-40.62,11.83-64.9,14.84-6.87,.85-13.97,1.29-21.12,1.29-9.4,0-19.27-.75-29.33-2.23-21.89-3.22-38.23-6.79-52.97-11.57-25.94-8.42-47.35-19.52-65.44-33.95-34.78-27.73-58.44-63.69-70.32-106.89-5.83-21.21-8.91-39.08-9.68-56.22l-.17-3.7c-.68-15.06-1.39-30.62-1.24-45.79,.04-3.82,.35-7.67,.81-11.76,10.26,9.8,19.96,19.07,29.7,28.33,2.11,2.01,4.22,4.02,6.33,6.04,7.2,6.89,14.65,14.02,22.32,20.79,6.47,5.72,12.86,8.5,19.52,8.5,5.72,0,11.33-1.98,17.67-6.22,10.37-6.95,20.84-14.08,30.97-20.98,5.65-3.85,11.31-7.7,16.97-11.54,.09-.06,.18-.12,.28-.19,.15,.13,.31,.26,.46,.4,4.42,3.8,8.59,7.39,12.67,11.13,5.61,5.14,11.27,10.47,16.74,15.63,4,3.77,8.14,7.66,12.25,11.48,5.78,5.36,11.59,7.97,17.78,7.97,5.56,0,10.99-2.13,16.59-6.5,12.36-9.66,24.88-19.52,36.99-29.06,6.21-4.89,12.42-9.79,18.64-14.67l.04-.03c1.26-.99,2.62-2.06,3.68-2.84,1.15,.8,2.64,1.9,3.85,2.8,9.17,6.83,18.46,13.85,27.45,20.64,5.77,4.36,11.54,8.72,17.33,13.07,2.97,2.23,5.73,4.15,8.44,5.88,3.59,2.28,8.47,4.9,14.3,4.9h0Z" style="fill: #fff;"/>
  </g>
  <path d="M133.17,305.82c15.8,15.08,29.92,28.61,44.1,42.09,9.4,8.93,18.67,18.01,28.38,26.58,8.74,7.72,15.64,7.73,25.01,1.46,16.03-10.74,31.93-21.66,47.9-32.48,2.12-1.44,4.34-2.73,6.84-4.3,6.48,5.64,12.83,10.95,18.93,16.54,9.77,8.95,19.33,18.13,29.04,27.15,7.26,6.74,13.55,7.06,21.41,.92,18.58-14.51,37.07-29.14,55.6-43.71,9.65-7.59,9.73-7.67,19.72-.22,14.99,11.17,29.86,22.51,44.8,33.74,2.53,1.9,5.12,3.73,7.8,5.43,6.52,4.14,12.01,5.57,19.08-2.44,6.24-7.06,11.28-15.22,16.51-23.13,8.41-12.73,16.53-25.66,24.77-38.5,.62-.97,1.28-1.92,2.5-3.74,10.5,7.99,20.36,15.28,29.98,22.87,8.8,6.94,17.28,14.28,26.05,21.27,2.96,2.35,4.66,4.94,4.33,8.8-1,11.72-1.42,23.51-3.02,35.15-1.9,13.91-3.97,27.88-7.39,41.47-8.04,31.91-21.76,61.01-42.98,86.66-25.35,30.65-57,51.45-94.1,64.8-21.76,7.83-44.24,12.52-67.05,15.36-17.65,2.19-35.33,1.64-53.14-.98-18.55-2.73-36.84-6.19-54.6-11.96-24.78-8.04-48.07-19.28-68.59-35.64-36.76-29.31-61.23-66.63-73.72-112.05-5.28-19.21-9.14-38.55-10.03-58.43-.75-16.67-1.58-33.36-1.42-50.03,.1-10.24,2-20.47,3.3-32.67Zm23.72,110.41c1.78,38.33,16.77,68.33,44.63,91.87,4.3,3.63,9.6,6.37,14.84,8.51,5.11,2.08,12.11-1.08,15.08-5.64,3.11-4.79,2.88-11.71-.94-16.09-2.26-2.58-4.94-4.84-7.61-7.01-26.52-21.48-39.96-48.47-35.35-83.19,1.06-7.96-3.55-15.15-10.4-16.67-8.22-1.83-15.6,2.48-17.69,11.13-1.47,6.1-1.89,12.46-2.54,17.09Zm111.36,109.51c.12-7.96-5.51-14.27-12.92-14.5-8.11-.25-16.28,7.77-16.21,15.92,.06,7.4,6.32,13.18,14.25,13.18,8.51,0,14.76-6.13,14.89-14.6Z" style="fill: #efcc71;"/>
  <path d="M604.01,322.88c-10.18-7.87-18.75-14.6-27.43-21.18-7.58-5.75-15.27-11.37-22.94-17-10.29-7.54-18.49-6.1-25.44,4.64-9.72,15.01-19.31,30.11-28.97,45.17-3.26,5.08-6.57,10.12-10.18,15.68-2.3-1.31-4.35-2.21-6.1-3.52-17.74-13.36-35.44-26.77-53.13-40.2-6.49-4.93-11.91-5.24-18.92,.11-13.54,10.31-26.8,20.99-40.2,31.48-8.36,6.54-16.76,13.03-25.49,19.8-6.48-5.83-12.5-11.15-18.41-16.59-9.13-8.4-18.17-16.89-27.27-25.33-8.98-8.34-14.58-8.85-24.55-2.05-15.97,10.89-31.87,21.87-47.82,32.8-2.35,1.61-4.78,3.1-7.4,4.8-1.31-1.04-2.48-1.83-3.49-2.79-24.27-23.05-48.5-46.13-72.82-69.14-3.09-2.92-4.93-5.46-3.71-10.35,12.01-48.27,29.94-93.94,58.48-134.99,20.54-29.54,46.11-53.79,77.34-71.9,24.69-14.32,51.58-21.1,79.82-23.22,29.89-2.24,58.61,3.04,86.2,14.27,21.05,8.57,39.37,21.67,56.28,36.7,31.64,28.13,53.96,62.86,71.09,101.22,16.2,36.29,27.18,74.1,33.14,113.38,.17,1.14,.26,2.29,.38,3.44,.45,4.27,.89,8.54,1.54,14.77ZM242.21,186.91c-.48,.68-1.3,1.32-1.38,2.04-1.32,11.9,1.04,23,8.11,32.75,12.19,16.82,33.99,18.7,48.89,4.35,12.5-12.04,15.97-27.17,13.22-43.61-2.18-12.99-8.27-24.08-21.24-29.55-22.19-9.35-47.29,8.73-47.69,34.17,0,0,.1-.14,.1-.14Zm213.64-36.6c-8.65,.5-17.22,4.27-23.51,12.87-12.9,17.62-12.06,43.72,2.12,60.25,14.91,17.38,39.74,16,52.54-2.9,11.54-17.04,9.95-42.69-3.71-58.05-6.82-7.67-15.19-12.27-27.44-12.17Zm-88.42,106.2c22.44-1.55,39.67-11.34,50.33-31.47,1.68-3.18,2.59-7.08,2.76-10.69,.25-5.39-3.11-9.53-7.9-11.23-4.98-1.77-10.61-.22-13.99,4.11-1.41,1.8-2.43,3.92-3.52,5.95-6.03,11.26-15.63,16.87-28.17,16.78-12.33-.09-21.23-6.3-27.08-17.1-1.36-2.5-2.95-4.99-4.91-7.03-3.56-3.71-8.09-4.33-12.77-2.48-4.75,1.87-7.68,5.65-7.34,10.68,.29,4.18,1.21,8.71,3.22,12.32,10.7,19.27,27.66,28.6,49.39,30.17Zm195.36-36.08c-.1-11.6-4.36-26.89-10.8-39.41-1.57-3.06-3.32-6.14-5.57-8.72-4.44-5.09-10.95-6-15.51-2.64-4.83,3.55-5.57,9.12-2,15.41,.71,1.25,1.65,2.38,2.33,3.65,4.84,8.96,8.23,18.4,9.39,28.58,.33,2.86,.45,5.79,1.16,8.56,1.49,5.84,4.95,8.36,10.57,8.15,5.15-.19,9.14-3.62,10.13-8.94,.37-1.97,.27-4.02,.3-4.63Zm-.32,32.67c.18-6.22-5.19-12.15-11-12.15-5.56,0-10.69,5.49-10.72,11.47-.03,5.88,5.06,11.49,10.61,11.7,5.64,.21,10.93-5.04,11.1-11.02Z" style="fill: #fff;"/>
  <path d="M156.89,416.23c.66-4.63,1.07-10.99,2.54-17.09,2.09-8.65,9.47-12.96,17.69-11.13,6.85,1.52,11.46,8.71,10.4,16.67-4.61,34.72,8.84,61.71,35.35,83.19,2.68,2.17,5.36,4.42,7.61,7.01,3.83,4.38,4.06,11.3,.94,16.09-2.96,4.56-9.97,7.72-15.08,5.64-5.25-2.14-10.54-4.88-14.84-8.51-27.86-23.54-42.85-53.54-44.63-91.87Z" style="fill: #fff;"/>
  <path d="M268.24,525.73c-.12,8.47-6.37,14.6-14.89,14.6-7.93,0-14.19-5.79-14.25-13.18-.07-8.15,8.1-16.17,16.21-15.92,7.41,.23,13.04,6.54,12.92,14.5Z" style="fill: #fff;"/>
  <path d="M455.84,150.31c12.26-.11,20.62,4.49,27.44,12.17,13.66,15.36,15.25,41.01,3.71,58.05-12.8,18.91-37.64,20.28-52.54,2.9-14.18-16.53-15.02-42.62-2.12-60.25,6.3-8.6,14.86-12.37,23.51-12.87Zm25.46,49.13c6.42,0,10.76-4.54,10.56-11.04-.18-5.85-4.64-10.13-10.59-10.17-6.24-.05-10.8,4.71-10.58,11.04,.21,6,4.56,10.16,10.62,10.16Zm-8.09-25.14c2.21-2.73,4.16-4.14,4.61-5.93,.75-2.92-1.17-5.06-4.1-5.38-2.96-.31-5.38,1.59-5.12,4.41,.19,1.99,2.42,3.78,4.6,6.89Z" style="fill: #e8754d;"/>
  <path d="M242.11,187.05c.4-25.45,25.5-43.53,47.69-34.17,12.97,5.47,19.06,16.56,21.24,29.55,2.76,16.44-.71,31.57-13.22,43.61-14.9,14.36-36.7,12.47-48.89-4.35-7.06-9.75-9.43-20.85-8.11-32.75,.08-.72,.9-1.36,1.38-2.04,.54,1.93,.9,3.93,1.66,5.77,2.09,5.12,6.58,7.76,11.48,6.97,4.5-.73,8.5-4.71,9.16-9.11,.68-4.55-1.91-9.56-5.93-11.47-4.32-2.05-10.06-.79-13.27,3.08-1.24,1.49-2.15,3.26-3.2,4.9Zm19.61-12.55c2.25-3.25,4.45-5.08,4.53-7,.06-1.48-2.91-4.55-3.9-4.3-2.09,.51-4.85,2.48-5.26,4.32-.34,1.51,2.31,3.69,4.62,6.98Z" style="fill: #e8754d;"/>
  <path d="M367.42,256.51c-21.73-1.57-38.69-10.9-49.39-30.17-2.01-3.62-2.93-8.14-3.22-12.32-.34-5.03,2.59-8.81,7.34-10.68,4.68-1.85,9.21-1.23,12.77,2.48,1.96,2.04,3.56,4.53,4.91,7.03,5.85,10.8,14.75,17.02,27.08,17.1,12.55,.09,22.15-5.52,28.17-16.78,1.09-2.03,2.11-4.15,3.52-5.95,3.38-4.33,9.01-5.87,13.99-4.11,4.79,1.7,8.15,5.83,7.9,11.23-.17,3.62-1.07,7.51-2.76,10.69-10.65,20.13-27.89,29.92-50.33,31.47Z" style="fill: #e8754d;"/>
  <path d="M562.78,220.43c-.03,.6,.06,2.66-.3,4.63-.99,5.33-4.98,8.75-10.13,8.94-5.62,.21-9.08-2.31-10.57-8.15-.7-2.77-.83-5.7-1.16-8.56-1.16-10.18-4.55-19.62-9.39-28.58-.68-1.27-1.62-2.39-2.33-3.65-3.57-6.29-2.83-11.86,2-15.41,4.56-3.35,11.07-2.45,15.51,2.64,2.24,2.57,3.99,5.66,5.57,8.72,6.44,12.52,10.7,27.81,10.8,39.41Z" style="fill: #e8754d;"/>
  <path d="M562.46,253.1c-.18,5.98-5.46,11.22-11.1,11.02-5.55-.2-10.64-5.81-10.61-11.7,.03-5.98,5.16-11.47,10.72-11.47,5.81,0,11.18,5.93,11,12.15Z" style="fill: #e8754d;"/>
  <path d="M481.3,199.44c-6.06,0-10.41-4.16-10.62-10.16-.22-6.33,4.34-11.09,10.58-11.04,5.96,.04,10.41,4.32,10.59,10.17,.2,6.5-4.14,11.04-10.56,11.04Z" style="fill: #fff;"/>
  <path d="M473.21,174.29c-2.18-3.11-4.41-4.91-4.6-6.89-.26-2.82,2.16-4.73,5.12-4.41,2.93,.31,4.84,2.45,4.1,5.38-.46,1.79-2.4,3.2-4.61,5.93Z" style="fill: #fff;"/>
  <path d="M242.11,187.05c1.06-1.64,1.97-3.41,3.2-4.9,3.2-3.87,8.95-5.13,13.27-3.08,4.02,1.91,6.61,6.92,5.93,11.47-.65,4.4-4.66,8.39-9.16,9.11-4.9,.79-9.39-1.86-11.48-6.97-.75-1.84-1.12-3.85-1.66-5.77,0,0-.1,.14-.1,.14Z" style="fill: #fff;"/>
  <path d="M261.72,174.5c-2.31-3.29-4.96-5.47-4.62-6.98,.41-1.84,3.17-3.81,5.26-4.32,.98-.24,3.96,2.83,3.9,4.3-.08,1.92-2.29,3.75-4.53,7Z" style="fill: #fff;"/>
</svg>